<svg id="Layer_1" height="512" viewBox="0 0 90 90" width="512" xmlns="http://www.w3.org/2000/svg" data-name="Layer 1"><path d="m64.616 51.549a.5.5 0 0 1 -.5-.5v-2.835a.5.5 0 0 1 1 0v2.835a.5.5 0 0 1 -.5.5z"/><path d="m64.616 61a.5.5 0 0 1 -.5-.5v-2.769a.5.5 0 0 1 1 0v2.769a.5.5 0 0 1 -.5.5z"/><path d="m64.616 76.9h-39.232a.5.5 0 0 1 -.5-.5v-54.952a.5.5 0 0 1 .5-.5h7.533a.5.5 0 0 1 0 1h-7.033v53.952h38.232v-8.719a.5.5 0 0 1 1 0v9.219a.5.5 0 0 1 -.5.5z"/><path d="m64.616 42.032a.5.5 0 0 1 -.5-.5v-19.584h-7.024a.5.5 0 0 1 0-1h7.524a.5.5 0 0 1 .5.5v20.084a.5.5 0 0 1 -.5.5z"/><path d="m57.092 24.477h-24.175a.5.5 0 0 1 -.5-.5v-4.993a.5.5 0 0 1 .5-.5h6.223a5.881 5.881 0 0 1 11.72 0h6.232a.5.5 0 0 1 .5.5v4.993a.5.5 0 0 1 -.5.5zm-23.675-1h23.175v-3.993h-6.21a.5.5 0 0 1 -.5-.5 4.882 4.882 0 1 0 -9.764 0 .5.5 0 0 1 -.5.5h-6.2z"/><path d="m41.942 43.693a.5.5 0 0 1 -.445-.273l-2.855-5.6h-4.792a.5.5 0 1 1 0-1h5.1a.5.5 0 0 1 .446.273l2.464 4.835 3.759-10.646a.5.5 0 0 1 .472-.334.5.5 0 0 1 .47.339l3.047 8.944 1.553-3.431a.5.5 0 0 1 .456-.294h8.063a.5.5 0 0 1 0 1h-7.74l-1.94 4.294a.485.485 0 0 1 -.48.294.5.5 0 0 1 -.45-.338l-2.99-8.778-3.666 10.382a.5.5 0 0 1 -.438.332z"/><path d="m59.68 52.038h-27.78a.5.5 0 0 1 0-1h27.78a.5.5 0 0 1 0 1z"/><path d="m59.68 59.578h-27.78a.5.5 0 1 1 0-1h27.78a.5.5 0 1 1 0 1z"/><path d="m59.68 67.118h-27.78a.5.5 0 1 1 0-1h27.78a.5.5 0 1 1 0 1z"/></svg>