<svg id="Layer_1" height="512" viewBox="0 0 90 90" width="512" xmlns="http://www.w3.org/2000/svg" data-name="Layer 1"><path d="m62.872 47.71a.5.5 0 0 1 -.5-.5v-2.835a.5.5 0 0 1 1 0v2.835a.5.5 0 0 1 -.5.5z"/><path d="m59.034 77h-28.068a4.343 4.343 0 0 1 -4.338-4.338v-55.315a4.347 4.347 0 0 1 4.338-4.347h28.068a4.347 4.347 0 0 1 4.338 4.347v10.884a.5.5 0 1 1 -1 0v-10.884a3.346 3.346 0 0 0 -3.338-3.347h-28.068a3.346 3.346 0 0 0 -3.338 3.347v55.315a3.342 3.342 0 0 0 3.338 3.338h28.068a3.342 3.342 0 0 0 3.338-3.338v-18.769a.5.5 0 0 1 1 0v18.769a4.343 4.343 0 0 1 -4.338 4.338z"/><path d="m62.872 38.192a.5.5 0 0 1 -.5-.5v-2.778a.5.5 0 0 1 1 0v2.778a.5.5 0 0 1 -.5.5z"/><path d="m62.872 23.069h-35.744a.5.5 0 0 1 0-1h35.744a.5.5 0 0 1 0 1z"/><path d="m62.872 63.405h-35.744a.5.5 0 0 1 0-1h35.744a.5.5 0 0 1 0 1z"/><path d="m47.689 72.137h-5.378a2.559 2.559 0 0 1 0-5.117h5.378a2.559 2.559 0 0 1 0 5.117zm-5.378-4.117a1.559 1.559 0 0 0 0 3.117h5.378a1.559 1.559 0 0 0 0-3.117z"/><path d="m49.018 18.475h-8.036a.5.5 0 0 1 0-1h8.036a.5.5 0 0 1 0 1z"/><path d="m45 52.431a9.455 9.455 0 1 1 9.455-9.455 9.466 9.466 0 0 1 -9.455 9.455zm0-17.91a8.455 8.455 0 1 0 8.455 8.455 8.465 8.465 0 0 0 -8.455-8.455z"/><path d="m45 46.937a.5.5 0 0 1 -.5-.5v-6.922a.5.5 0 0 1 1 0v6.922a.5.5 0 0 1 -.5.5z"/><path d="m48.461 43.476h-6.922a.5.5 0 0 1 0-1h6.922a.5.5 0 0 1 0 1z"/></svg>