<svg id="Layer_1" height="512" viewBox="0 0 90 90" width="512" xmlns="http://www.w3.org/2000/svg" data-name="Layer 1"><path d="m51.042 54.339h-2.835a.5.5 0 1 1 0-1h2.835a.5.5 0 0 1 0 1z"/><path d="m32.076 54.339h-17.621a1.456 1.456 0 0 1 -1.455-1.454v-4.878a1.456 1.456 0 0 1 1.455-1.455h3.89a.5.5 0 0 1 0 1h-3.89a.45.45 0 0 0 -.455.455v4.878a.455.455 0 0 0 .455.454h17.621a.5.5 0 0 1 0 1z"/><path d="m41.525 54.339h-2.768a.5.5 0 0 1 0-1h2.768a.5.5 0 1 1 0 1z"/><path d="m75.545 54.34h-17.821a.5.5 0 1 1 0-1h17.821a.455.455 0 0 0 .455-.455v-4.878a.45.45 0 0 0 -.455-.455h-3.894a.5.5 0 0 1 0-1h3.894a1.456 1.456 0 0 1 1.455 1.455v4.878a1.456 1.456 0 0 1 -1.455 1.455z"/><path d="m48.919 47.548h-7.838a.5.5 0 0 1 0-1h7.838a.5.5 0 0 1 0 1z"/><path d="m71.651 49.96h-22.732a.5.5 0 0 1 -.5-.5v-4.547a.5.5 0 0 1 .5-.5h22.732a.5.5 0 0 1 .5.5v4.547a.5.5 0 0 1 -.5.5zm-22.232-1h21.732v-3.547h-21.732z"/><path d="m68.8 45.413a.5.5 0 0 1 -.5-.5v-13.1a8.012 8.012 0 0 0 -16.024 0v13.1a.5.5 0 0 1 -1 0v-13.1a9.012 9.012 0 0 1 18.024 0v13.1a.5.5 0 0 1 -.5.5z"/><path d="m38.225 45.413a.5.5 0 0 1 -.5-.5v-13.1a8.012 8.012 0 0 0 -16.024 0v13.1a.5.5 0 0 1 -1 0v-13.1a9.012 9.012 0 0 1 18.024 0v13.1a.5.5 0 0 1 -.5.5z"/><path d="m41.082 49.96h-22.737a.5.5 0 0 1 -.5-.5v-4.547a.5.5 0 0 1 .5-.5h22.736a.5.5 0 0 1 .5.5v4.547a.5.5 0 0 1 -.5.5zm-22.237-1h21.737v-3.547h-21.737z"/><path d="m69.9 63.265a.5.5 0 0 1 -.5-.5v-8.925a.5.5 0 0 1 1 0v8.925a.5.5 0 0 1 -.5.5z"/><path d="m64.572 63.265a.5.5 0 0 1 -.5-.5v-8.925a.5.5 0 0 1 1 0v8.925a.5.5 0 0 1 -.5.5z"/><path d="m71.361 67.2h-8.251a1.471 1.471 0 0 1 -1.47-1.469v-1.996a1.471 1.471 0 0 1 1.47-1.47h8.251a1.472 1.472 0 0 1 1.47 1.47v1.993a1.472 1.472 0 0 1 -1.47 1.472zm-8.251-3.935a.471.471 0 0 0 -.47.47v1.993a.471.471 0 0 0 .47.469h8.251a.471.471 0 0 0 .47-.469v-1.993a.471.471 0 0 0 -.47-.47z"/><path d="m25.428 63.265a.5.5 0 0 1 -.5-.5v-8.926a.5.5 0 0 1 1 0v8.926a.5.5 0 0 1 -.5.5z"/><path d="m20.1 63.265a.5.5 0 0 1 -.5-.5v-8.926a.5.5 0 0 1 1 0v8.926a.5.5 0 0 1 -.5.5z"/><path d="m26.89 67.2h-8.251a1.472 1.472 0 0 1 -1.47-1.469v-1.996a1.472 1.472 0 0 1 1.47-1.47h8.251a1.471 1.471 0 0 1 1.47 1.47v1.993a1.471 1.471 0 0 1 -1.47 1.472zm-8.251-3.932a.471.471 0 0 0 -.47.47v1.993a.471.471 0 0 0 .47.469h8.251a.471.471 0 0 0 .47-.469v-1.996a.471.471 0 0 0 -.47-.47z"/></svg>