<svg id="Layer_1" height="512" viewBox="0 0 90 90" width="512" xmlns="http://www.w3.org/2000/svg" data-name="Layer 1"><path d="m45 77a.5.5 0 0 1 -.245-.064c-15.492-8.723-24.377-21.208-24.377-34.255v-19.369a.5.5 0 0 1 .492-.5c9.6-.164 17.6-3.416 23.774-9.664a.484.484 0 0 1 .376-.148.5.5 0 0 1 .362.178c5.347 6.346 13.334 9.587 23.742 9.634a.5.5 0 0 1 .5.5v10.109a.5.5 0 1 1 -1 0v-9.613c-10.248-.146-18.2-3.365-23.65-9.574-6.2 6.085-14.134 9.3-23.594 9.567v18.88c0 12.609 8.608 24.715 23.63 33.249 11.231-5.974 18.961-17.408 19.026-17.517a.5.5 0 1 1 .859.512c-.067.113-8.076 11.963-19.662 18.018a.493.493 0 0 1 -.233.057z"/><path d="m69.112 43.648h-.032a.5.5 0 0 1 -.467-.531c.009-.142.009-.293.009-.435v-2.435a.5.5 0 0 1 1 0v2.434c0 .162 0 .336-.011.5a.5.5 0 0 1 -.499.467z"/><path d="m67.422 52.955a.51.51 0 0 1 -.162-.027.5.5 0 0 1 -.31-.636c.337-.982.595-1.839.789-2.62a.5.5 0 0 1 .97.24c-.2.81-.466 1.7-.814 2.706a.5.5 0 0 1 -.473.337z"/><path d="m47.9 55.889h-5.79a.5.5 0 0 1 -.5-.5v-6.989h-6.999a.5.5 0 0 1 -.5-.5v-5.79a.5.5 0 0 1 .5-.5h6.994v-6.999a.5.5 0 0 1 .5-.5h5.795a.5.5 0 0 1 .5.5v6.994h6.994a.5.5 0 0 1 .5.5v5.795a.5.5 0 0 1 -.5.5h-6.994v6.994a.5.5 0 0 1 -.5.495zm-5.29-1h4.79v-6.989a.5.5 0 0 1 .5-.5h6.994v-4.79h-6.994a.5.5 0 0 1 -.5-.5v-6.999h-4.79v6.994a.5.5 0 0 1 -.5.5h-6.999v4.795h6.994a.5.5 0 0 1 .5.5z"/></svg>