<svg id="Layer_1" height="512" viewBox="0 0 90 90" width="512" xmlns="http://www.w3.org/2000/svg" data-name="Layer 1"><path d="m23.185 48.877a.5.5 0 0 1 -.4-.2q-.873-1.143-1.687-2.287a.5.5 0 0 1 .814-.58q.805 1.131 1.668 2.261a.5.5 0 0 1 -.094.7.493.493 0 0 1 -.301.106z"/><path d="m63.869 75.781c-7.017 0-17.489-3.02-30.125-15.038a.5.5 0 1 1 .69-.724c23.522 22.373 37.976 12.641 38.1 12.521l1.933-1.9c.779-.781 1.15-2.43.471-3.109l-10.364-10.291c-.692-.681-2.358-.311-3.14.472l-1.878 1.859c-3.23 3.2-12.347-.637-20.325-8.556-5.973-5.93-9.832-12.564-9.83-16.9a4.356 4.356 0 0 1 1.165-3.224l1.919-1.911a3.119 3.119 0 0 0 .792-1.639 1.692 1.692 0 0 0 -.319-1.48l-10.358-10.279c-.687-.686-2.352-.318-3.143.465l-1.889 1.853c-3.628 3.609-4.266 13.577.621 22.107a.5.5 0 0 1 .067.249.5.5 0 0 1 -.5.5.5.5 0 0 1 -.463-.307c-5.081-8.911-4.308-19.4-.428-23.264l1.885-1.856c1.141-1.128 3.428-1.585 4.551-.461l10.363 10.283a2.629 2.629 0 0 1 .6 2.35 4.12 4.12 0 0 1 -1.074 2.187l-1.919 1.912a3.4 3.4 0 0 0 -.87 2.515c0 4.02 3.829 10.527 9.536 16.19 7.463 7.406 16.121 11.322 18.916 8.555l1.876-1.86c1.127-1.128 3.41-1.591 4.547-.475l10.369 10.29c1.122 1.124.658 3.395-.474 4.527l-1.936 1.907c-.902.893-4.197 2.532-9.366 2.532z"/><path d="m29.38 56.172a.5.5 0 0 1 -.363-.157c-.658-.7-1.295-1.4-1.923-2.1a.5.5 0 1 1 .746-.665c.622.7 1.254 1.395 1.9 2.083a.5.5 0 0 1 -.363.843z"/><path d="m30.91 31.737a.5.5 0 0 1 -.353-.146l-13.684-13.683a.5.5 0 0 1 .707-.707l13.684 13.683a.5.5 0 0 1 -.354.853z"/><path d="m72.892 73.4a.5.5 0 0 1 -.354-.146l-13.684-13.681a.5.5 0 1 1 .708-.707l13.683 13.683a.5.5 0 0 1 -.353.853z"/><path d="m44.581 44.091h-.069a.5.5 0 0 1 -.339-.86c1.6-1.548 2.271-4.446 2.539-6.209a11.031 11.031 0 0 1 -4.24-8.4c0-6.916 7.369-12.542 16.427-12.542s16.428 5.626 16.428 12.542-7.369 12.546-16.427 12.546a20.909 20.909 0 0 1 -5.6-.759c-2.823 3.56-8.023 3.682-8.719 3.682zm14.319-27.008c-8.506 0-15.427 5.178-15.427 11.542a10.133 10.133 0 0 0 4.09 7.8.5.5 0 0 1 .18.457 14.517 14.517 0 0 1 -2.087 6.138c1.766-.186 5.174-.883 7.046-3.481a.5.5 0 0 1 .547-.188 19.863 19.863 0 0 0 5.651.814c8.507 0 15.428-5.178 15.428-11.543s-6.922-11.539-15.428-11.539z"/><path d="m58.9 34.759a.5.5 0 0 1 -.5-.5v-11.268a.5.5 0 0 1 1 0v11.268a.5.5 0 0 1 -.5.5z"/><path d="m64.533 29.125h-11.267a.5.5 0 1 1 0-1h11.267a.5.5 0 0 1 0 1z"/></svg>