<svg id="Layer_1" height="512" viewBox="0 0 90 90" width="512" xmlns="http://www.w3.org/2000/svg" data-name="Layer 1"><path d="m50.088 77h-2.835a.5.5 0 0 1 0-1h2.835a.5.5 0 0 1 0 1z"/><path d="m61.074 77h-4.3a.5.5 0 0 1 0-1h4.3a3.955 3.955 0 0 0 3.894-4v-34.589a8.59 8.59 0 0 0 -2.393-5.982l-7.358-9.646a.5.5 0 0 1 .8-.606l7.321 9.6a9.534 9.534 0 0 1 2.635 6.632v34.591a4.957 4.957 0 0 1 -4.899 5z"/><path d="m31.121 77h-2.2a4.957 4.957 0 0 1 -4.894-5v-34.589a9.584 9.584 0 0 1 2.673-6.675l7.284-9.559a.5.5 0 0 1 .8.606l-7.321 9.6a8.641 8.641 0 0 0 -2.43 6.025v34.592a3.955 3.955 0 0 0 3.894 4h2.2a.5.5 0 0 1 0 1z"/><path d="m40.571 77h-2.771a.5.5 0 0 1 0-1h2.768a.5.5 0 0 1 0 1z"/><path d="m58.8 21.98h-27.6a1.613 1.613 0 0 1 -1.6-1.625v-5.728a1.614 1.614 0 0 1 1.6-1.627h27.6a1.614 1.614 0 0 1 1.6 1.627v5.728a1.613 1.613 0 0 1 -1.6 1.625zm-27.6-7.98a.613.613 0 0 0 -.6.627v5.728a.612.612 0 0 0 .6.625h27.6a.612.612 0 0 0 .6-.625v-5.728a.613.613 0 0 0 -.6-.627z"/><path d="m65.468 37.911h-40.936a.5.5 0 1 1 0-1h40.936a.5.5 0 0 1 0 1z"/><path d="m65.468 62.219h-40.936a.5.5 0 0 1 0-1h40.936a.5.5 0 0 1 0 1z"/></svg>