<svg id="Layer_1" height="512" viewBox="0 0 90 90" width="512" xmlns="http://www.w3.org/2000/svg" data-name="Layer 1"><path d="m30.238 77a3.254 3.254 0 0 1 -3.232-3.269v-34.831a24.907 24.907 0 0 1 -10.019-3.863 3.3 3.3 0 0 1 -1-4.507 3.208 3.208 0 0 1 4.465-1.011 18.474 18.474 0 0 0 7.4 2.915l3.46-11.72-3.434-1.414a3.286 3.286 0 0 1 -1.772-4.258 3.229 3.229 0 0 1 1.75-1.786 3.179 3.179 0 0 1 2.465-.009l6.147 2.539a3.267 3.267 0 0 1 1.874 3.962l-4.873 16.5v37.483a3.253 3.253 0 0 1 -3.231 3.269zm-11.514-46.994a2.192 2.192 0 0 0 -.482.054 2.214 2.214 0 0 0 -1.4 1 2.293 2.293 0 0 0 .69 3.136 23.665 23.665 0 0 0 10.035 3.767.5.5 0 0 1 .443.5v35.268a2.232 2.232 0 1 0 4.463 0v-37.556a.482.482 0 0 1 .021-.141l4.893-16.573a2.271 2.271 0 0 0 -1.3-2.755l-6.147-2.539a2.19 2.19 0 0 0 -1.7.006 2.239 2.239 0 0 0 -1.211 1.238 2.283 2.283 0 0 0 1.226 2.961l3.848 1.589a.5.5 0 0 1 .289.6l-3.703 12.561a.494.494 0 0 1 -.532.356 19.108 19.108 0 0 1 -8.243-3.119 2.191 2.191 0 0 0 -1.19-.353z"/><path d="m57.028 62.978a.5.5 0 0 1 -.5-.5v-2.778a.5.5 0 0 1 1 0v2.778a.5.5 0 0 1 -.5.5z"/><path d="m59.768 77a3.257 3.257 0 0 1 -3.24-3.268v-4.572a.5.5 0 0 1 1 0v4.572a2.235 2.235 0 1 0 4.47 0v-35.271a.5.5 0 0 1 .441-.5 23.743 23.743 0 0 0 10.03-3.771 2.294 2.294 0 0 0 .7-3.133 2.221 2.221 0 0 0 -1.41-1 2.165 2.165 0 0 0 -1.665.3 19.081 19.081 0 0 1 -8.246 3.122.5.5 0 0 1 -.532-.355l-3.7-12.562a.5.5 0 0 1 .289-.6l3.847-1.584a2.3 2.3 0 0 0 1.225-2.961 2.238 2.238 0 0 0 -1.218-1.241 2.168 2.168 0 0 0 -1.686 0l-6.157 2.524a2.278 2.278 0 0 0 -1.295 2.757l4.886 16.58a.477.477 0 0 1 .021.141v7.322a.5.5 0 0 1 -1 0v-7.248l-4.867-16.511a3.277 3.277 0 0 1 1.872-3.963l6.149-2.53a3.159 3.159 0 0 1 2.455 0 3.235 3.235 0 0 1 1.76 1.792 3.3 3.3 0 0 1 -1.77 4.256l-3.433 1.414 3.457 11.724a18.464 18.464 0 0 0 7.4-2.918 3.156 3.156 0 0 1 2.425-.435 3.218 3.218 0 0 1 2.04 1.449 3.3 3.3 0 0 1 -1 4.505 24.978 24.978 0 0 1 -10.016 3.865v34.832a3.253 3.253 0 0 1 -3.232 3.268z"/><path d="m57.028 53.518a.5.5 0 0 1 -.5-.5v-2.835a.5.5 0 0 1 1 0v2.835a.5.5 0 0 1 -.5.5z"/></svg>