<svg id="Layer_1" height="512" viewBox="0 0 90 90" width="512" xmlns="http://www.w3.org/2000/svg" data-name="Layer 1"><path d="m66.254 47.8h-.035a.5.5 0 0 1 -.465-.533c.066-.968.11-1.94.133-2.974a.492.492 0 0 1 .51-.489.5.5 0 0 1 .49.511c-.024 1.049-.068 2.038-.135 3.02a.5.5 0 0 1 -.498.465z"/><path d="m36.4 77a.507.507 0 0 1 -.318-.113c-12.528-10.277-13.082-29.476-12.959-35.115a2.213 2.213 0 0 0 -.579-1.574 16.02 16.02 0 0 1 -4.385-11.053 16.252 16.252 0 0 1 22.188-15.022 12.777 12.777 0 0 0 9.3 0 16.259 16.259 0 0 1 22.194 14.618.5.5 0 0 1 -.487.512.479.479 0 0 1 -.513-.487 15.259 15.259 0 0 0 -20.824-13.712 13.775 13.775 0 0 1 -10.036 0 15.253 15.253 0 0 0 -20.822 14.091 15.018 15.018 0 0 0 4.112 10.366 3.221 3.221 0 0 1 .852 2.285c-.123 5.397.391 23.474 11.777 33.618.035-3.588.439-14.963 4.052-20.936a5.909 5.909 0 0 1 10.115 0c3.614 5.974 4.018 17.348 4.053 20.937 6.739-6.015 9.573-14.815 10.764-21.256a.5.5 0 1 1 .982.181c-1.266 6.86-4.366 16.337-11.933 22.547a.5.5 0 0 1 -.818-.395c0-.146.178-14.742-3.908-21.5a4.909 4.909 0 0 0 -8.4 0c-4.087 6.757-3.91 21.351-3.908 21.5a.5.5 0 0 1 -.284.458.482.482 0 0 1 -.215.05z"/><path d="m68.61 38.465a.5.5 0 0 1 -.41-.785 14.772 14.772 0 0 0 1.348-2.392.5.5 0 0 1 .912.41 15.741 15.741 0 0 1 -1.439 2.552.5.5 0 0 1 -.411.215z"/><path d="m25.513 34.349a.5.5 0 0 1 -.455-.294 13.836 13.836 0 0 1 .942-10.404c1.722-2.938 4.754-4.611 9.011-4.974a.511.511 0 0 1 .54.456.5.5 0 0 1 -.456.54c-3.914.334-6.684 1.843-8.233 4.484-2.307 3.936-1.131 8.951-.89 9.486a.5.5 0 0 1 -.249.661.5.5 0 0 1 -.21.045z"/></svg>