<?xml version="1.0" encoding="UTF-8"?>
<svg xmlns="http://www.w3.org/2000/svg" id="Layer_1" data-name="Layer 1" viewBox="0 0 90 90" width="512" height="512"><path d="M57.838,77H55.005a.5.5,0,1,1,0-1h2.833a.5.5,0,0,1,0,1Z"/><path d="M74.462,77H64.515a.5.5,0,1,1,0-1h9.947a1.409,1.409,0,0,0,1.408-1.408V33.851H14.13V74.592A1.409,1.409,0,0,0,15.538,76H38.886a.5.5,0,0,1,0,1H15.538a2.41,2.41,0,0,1-2.408-2.408V33.351a.5.5,0,0,1,.5-.5H76.37a.5.5,0,0,1,.5.5V74.592A2.41,2.41,0,0,1,74.462,77Z"/><path d="M48.329,77H45.562a.5.5,0,0,1,0-1h2.767a.5.5,0,1,1,0,1Z"/><path d="M13.63,33.851a.5.5,0,0,1-.5-.5v-12a2.41,2.41,0,0,1,2.408-2.408H24.5a.5.5,0,0,1,0,1h-8.96a1.409,1.409,0,0,0-1.408,1.408v12A.5.5,0,0,1,13.63,33.851Z"/><path d="M76.37,33.851a.5.5,0,0,1-.5-.5v-12a1.409,1.409,0,0,0-1.408-1.408H65.506a.5.5,0,0,1,0-1h8.956a2.41,2.41,0,0,1,2.408,2.408v12A.5.5,0,0,1,76.37,33.851Z"/><path d="M59.009,19.945H30.991a.5.5,0,0,1,0-1H59.009a.5.5,0,0,1,0,1Z"/><path d="M62.256,25.891a3.751,3.751,0,0,1-3.747-3.747v-5.4a3.749,3.749,0,0,1,7.5,0v5.4A3.753,3.753,0,0,1,62.256,25.891Zm0-11.891a2.75,2.75,0,0,0-2.747,2.747v5.4a2.749,2.749,0,0,0,5.5,0v-5.4A2.752,2.752,0,0,0,62.256,14Z"/><path d="M27.745,25.891A3.751,3.751,0,0,1,24,22.144v-5.4a3.747,3.747,0,1,1,7.493,0v5.4A3.751,3.751,0,0,1,27.745,25.891Zm0-11.891A2.75,2.75,0,0,0,25,16.747v5.4a2.747,2.747,0,1,0,5.493,0v-5.4A2.75,2.75,0,0,0,27.745,14Z"/><path d="M66.045,46.44H62.083a1.454,1.454,0,0,1-1.454-1.453V41.024a1.455,1.455,0,0,1,1.454-1.454h3.962A1.455,1.455,0,0,1,67.5,41.024v3.963A1.454,1.454,0,0,1,66.045,46.44Zm-3.962-5.87a.455.455,0,0,0-.454.454v3.963a.454.454,0,0,0,.454.453h3.962a.454.454,0,0,0,.454-.453V41.024a.455.455,0,0,0-.454-.454Z"/><path d="M53.336,46.44H49.373a1.454,1.454,0,0,1-1.454-1.453V41.024a1.455,1.455,0,0,1,1.454-1.454h3.963a1.455,1.455,0,0,1,1.454,1.454v3.963A1.454,1.454,0,0,1,53.336,46.44Zm-3.963-5.87a.455.455,0,0,0-.454.454v3.963a.454.454,0,0,0,.454.453h3.963a.454.454,0,0,0,.454-.453V41.024a.455.455,0,0,0-.454-.454Z"/><path d="M40.627,46.44H36.664a1.454,1.454,0,0,1-1.454-1.453V41.024a1.455,1.455,0,0,1,1.454-1.454h3.963a1.455,1.455,0,0,1,1.454,1.454v3.963A1.454,1.454,0,0,1,40.627,46.44Zm-3.963-5.87a.455.455,0,0,0-.454.454v3.963a.454.454,0,0,0,.454.453h3.963a.454.454,0,0,0,.454-.453V41.024a.455.455,0,0,0-.454-.454Z"/><path d="M66.045,58.36H62.083a1.455,1.455,0,0,1-1.454-1.453V52.944a1.455,1.455,0,0,1,1.454-1.454h3.962A1.455,1.455,0,0,1,67.5,52.944v3.963A1.455,1.455,0,0,1,66.045,58.36Zm-3.962-5.87a.455.455,0,0,0-.454.454v3.963a.454.454,0,0,0,.454.453h3.962a.454.454,0,0,0,.454-.453V52.944a.455.455,0,0,0-.454-.454Z"/><path d="M53.336,58.36H49.373a1.455,1.455,0,0,1-1.454-1.453V52.944a1.455,1.455,0,0,1,1.454-1.454h3.963a1.455,1.455,0,0,1,1.454,1.454v3.963A1.455,1.455,0,0,1,53.336,58.36Zm-3.963-5.87a.455.455,0,0,0-.454.454v3.963a.454.454,0,0,0,.454.453h3.963a.454.454,0,0,0,.454-.453V52.944a.455.455,0,0,0-.454-.454Z"/><path d="M40.627,58.36H36.664a1.455,1.455,0,0,1-1.454-1.453V52.944a1.455,1.455,0,0,1,1.454-1.454h3.963a1.455,1.455,0,0,1,1.454,1.454v3.963A1.455,1.455,0,0,1,40.627,58.36Zm-3.963-5.87a.455.455,0,0,0-.454.454v3.963a.454.454,0,0,0,.454.453h3.963a.454.454,0,0,0,.454-.453V52.944a.455.455,0,0,0-.454-.454Z"/><path d="M27.917,58.36H23.955A1.455,1.455,0,0,1,22.5,56.907V52.944a1.455,1.455,0,0,1,1.454-1.454h3.962a1.455,1.455,0,0,1,1.454,1.454v3.963A1.455,1.455,0,0,1,27.917,58.36Zm-3.962-5.87a.455.455,0,0,0-.454.454v3.963a.454.454,0,0,0,.454.453h3.962a.454.454,0,0,0,.454-.453V52.944a.455.455,0,0,0-.454-.454Z"/><path d="M53.336,70.28H49.373a1.455,1.455,0,0,1-1.454-1.453V64.864a1.455,1.455,0,0,1,1.454-1.454h3.963a1.455,1.455,0,0,1,1.454,1.454v3.963A1.455,1.455,0,0,1,53.336,70.28Zm-3.963-5.87a.455.455,0,0,0-.454.454v3.963a.454.454,0,0,0,.454.453h3.963a.454.454,0,0,0,.454-.453V64.864a.455.455,0,0,0-.454-.454Z"/><path d="M40.627,70.28H36.664a1.455,1.455,0,0,1-1.454-1.453V64.864a1.455,1.455,0,0,1,1.454-1.454h3.963a1.455,1.455,0,0,1,1.454,1.454v3.963A1.455,1.455,0,0,1,40.627,70.28Zm-3.963-5.87a.455.455,0,0,0-.454.454v3.963a.454.454,0,0,0,.454.453h3.963a.454.454,0,0,0,.454-.453V64.864a.455.455,0,0,0-.454-.454Z"/><path d="M27.917,70.28H23.955A1.455,1.455,0,0,1,22.5,68.827V64.864a1.455,1.455,0,0,1,1.454-1.454h3.962a1.455,1.455,0,0,1,1.454,1.454v3.963A1.455,1.455,0,0,1,27.917,70.28Zm-3.962-5.87a.455.455,0,0,0-.454.454v3.963a.454.454,0,0,0,.454.453h3.962a.454.454,0,0,0,.454-.453V64.864a.455.455,0,0,0-.454-.454Z"/></svg>
