<svg id="Layer_1" height="512" viewBox="0 0 90 90" width="512" xmlns="http://www.w3.org/2000/svg" data-name="Layer 1"><path d="m71.442 34a.5.5 0 0 1 -.5-.5v-6.1h-33.651a.5.5 0 0 1 -.324-.12l-5.267-4.489h-12.642v10.709a.5.5 0 0 1 -1 0v-11.209a.5.5 0 0 1 .5-.5h13.324a.5.5 0 0 1 .324.119l5.27 4.494h33.966a.5.5 0 0 1 .5.5v6.6a.5.5 0 0 1 -.5.496z"/><path d="m41.525 68.209h-2.768a.5.5 0 0 1 0-1h2.768a.5.5 0 1 1 0 1z"/><path d="m72.605 68.209h-14.881a.5.5 0 1 1 0-1h14.435l3.78-33.209h-61.878l3.78 33.207h14.234a.5.5 0 0 1 0 1h-14.675a.5.5 0 0 1 -.5-.443l-3.9-34.205a.5.5 0 0 1 .5-.559h63a.5.5 0 0 1 .5.557l-3.9 34.209a.5.5 0 0 1 -.495.443z"/><path d="m51.042 68.209h-2.835a.5.5 0 1 1 0-1h2.835a.5.5 0 0 1 0 1z"/><path d="m45 60.47a9.863 9.863 0 1 1 9.861-9.863 9.873 9.873 0 0 1 -9.861 9.863zm0-18.726a8.863 8.863 0 1 0 8.861 8.863 8.872 8.872 0 0 0 -8.861-8.863z"/><path d="m45 55.306a.5.5 0 0 1 -.5-.5v-8.4a.5.5 0 0 1 1 0v8.4a.5.5 0 0 1 -.5.5z"/><path d="m49.2 51.107h-8.4a.5.5 0 1 1 0-1h8.4a.5.5 0 1 1 0 1z"/></svg>