<svg id="Layer_1" height="512" viewBox="0 0 90 90" width="512" xmlns="http://www.w3.org/2000/svg" data-name="Layer 1"><path d="m33.277 55.61a2.787 2.787 0 0 1 -2.788-2.78v-6.939c-7-1.327-12.42-8.1-12.42-15.631a2.79 2.79 0 0 1 5.58 0c0 5.508 4.5 10.34 9.63 10.34s9.64-4.832 9.64-10.34a2.785 2.785 0 0 1 5.57 0c0 7.529-5.422 14.306-12.42 15.631v6.939a2.789 2.789 0 0 1 -2.792 2.78zm-12.421-27.13a1.785 1.785 0 0 0 -1.787 1.78c0 7.2 5.27 13.662 12 14.716a.5.5 0 0 1 .423.494v7.36a1.79 1.79 0 0 0 3.58 0v-7.36a.5.5 0 0 1 .423-.494c6.728-1.053 12-7.517 12-14.716a1.785 1.785 0 0 0 -3.57 0c0 6.041-4.972 11.34-10.64 11.34s-10.63-5.3-10.63-11.34a1.788 1.788 0 0 0 -1.799-1.78z"/><path d="m45.7 28.48a.5.5 0 0 1 -.5-.5v-9.819a1.02 1.02 0 0 0 -1.018-1.018h-2.382a.5.5 0 0 1 0-1h2.383a2.02 2.02 0 0 1 2.017 2.018v9.819a.5.5 0 0 1 -.5.5z"/><path d="m41.44 19.854h-.69a3.427 3.427 0 1 1 0-6.854h.69a.863.863 0 0 1 .862.861v5.132a.863.863 0 0 1 -.862.861zm-.69-5.854a2.427 2.427 0 1 0 0 4.854h.55v-4.854z"/><path d="m20.856 28.48a.5.5 0 0 1 -.5-.5v-9.819a2.021 2.021 0 0 1 2.019-2.018h2.384a.5.5 0 0 1 0 1h-2.384a1.02 1.02 0 0 0 -1.019 1.018v9.819a.5.5 0 0 1 -.5.5z"/><path d="m25.811 19.854h-.692a.862.862 0 0 1 -.86-.861v-5.132a.861.861 0 0 1 .86-.861h.692a3.427 3.427 0 0 1 0 6.854zm-.552-1h.552a2.427 2.427 0 0 0 0-4.854h-.552z"/><path d="m48.13 77h-.006a15.507 15.507 0 0 1 -2.633-.247.5.5 0 0 1 -.4-.582.5.5 0 0 1 .583-.4 14.614 14.614 0 0 0 2.463.23.5.5 0 0 1 -.006 1z"/><path d="m34.423 67.789a.5.5 0 0 1 -.462-.309 15.366 15.366 0 0 1 -1.184-5.928v-6.442a.5.5 0 0 1 1 0v6.442a14.345 14.345 0 0 0 1.108 5.548.5.5 0 0 1 -.462.692z"/><path d="m40.236 74.681a.493.493 0 0 1 -.264-.077 14.281 14.281 0 0 1 -2.018-1.522.5.5 0 0 1 .67-.743 13.373 13.373 0 0 0 1.876 1.418.5.5 0 0 1 -.265.924z"/><path d="m55.137 75.311a.5.5 0 0 1 -.232-.943 14.426 14.426 0 0 0 7.769-12.816.5.5 0 0 1 1 0 15.421 15.421 0 0 1 -8.306 13.7.492.492 0 0 1 -.231.059z"/><path d="m65.6 62.052h-4.846a.5.5 0 0 1 -.5-.5v-4.646a.5.5 0 0 1 1 0v4.146h3.846v-4.146a.5.5 0 1 1 1 0v4.646a.5.5 0 0 1 -.5.5z"/><path d="m63.178 57.768a8.75 8.75 0 1 1 8.753-8.75 8.761 8.761 0 0 1 -8.753 8.75zm0-16.5a7.75 7.75 0 1 0 7.753 7.749 7.759 7.759 0 0 0 -7.753-7.748z"/><path d="m63.178 52.94a3.922 3.922 0 1 1 3.922-3.922 3.927 3.927 0 0 1 -3.922 3.922zm0-6.844a2.922 2.922 0 1 0 2.922 2.922 2.926 2.926 0 0 0 -2.922-2.918z"/></svg>