<svg id="Layer_1" height="512" viewBox="0 0 90 90" width="512" xmlns="http://www.w3.org/2000/svg" data-name="Layer 1"><path d="m74.667 47.438h-22.413a.5.5 0 0 1 0-1h22.413a1.354 1.354 0 0 0 1.333-1.371v-14.042a1.348 1.348 0 0 0 -1.333-1.36h-59.334a1.348 1.348 0 0 0 -1.333 1.36v14.042a1.354 1.354 0 0 0 1.333 1.371h22.413a.5.5 0 0 1 0 1h-22.413a2.355 2.355 0 0 1 -2.333-2.371v-14.042a2.349 2.349 0 0 1 2.333-2.36h59.334a2.349 2.349 0 0 1 2.333 2.36v14.042a2.355 2.355 0 0 1 -2.333 2.371z"/><path d="m45.344 69.858h-2.768a.5.5 0 1 1 0-1h2.768a.5.5 0 0 1 0 1z"/><path d="m66.5 69.858h-4.958a.5.5 0 0 1 0-1h4.958a4.947 4.947 0 0 0 4.883-5v-16.921a.5.5 0 0 1 1 0v16.923a5.948 5.948 0 0 1 -5.883 5.998z"/><path d="m54.86 69.858h-2.835a.5.5 0 0 1 0-1h2.835a.5.5 0 0 1 0 1z"/><path d="m35.894 69.858h-12.394a5.948 5.948 0 0 1 -5.883-6v-16.92a.5.5 0 0 1 1 0v16.922a4.947 4.947 0 0 0 4.883 5h12.394a.5.5 0 1 1 0 1z"/><path d="m56.852 29.665a.5.5 0 0 1 -.5-.5v-5.66a2.366 2.366 0 0 0 -2.363-2.363h-17.978a2.366 2.366 0 0 0 -2.363 2.363v5.66a.5.5 0 0 1 -1 0v-5.66a3.367 3.367 0 0 1 3.363-3.363h17.978a3.367 3.367 0 0 1 3.363 3.363v5.66a.5.5 0 0 1 -.5.5z"/><path d="m51.2 51.37h-12.4a1.553 1.553 0 0 1 -1.551-1.553v-5.769a1.553 1.553 0 0 1 1.551-1.548h12.4a1.553 1.553 0 0 1 1.551 1.552v5.769a1.553 1.553 0 0 1 -1.551 1.549zm-12.4-7.87a.552.552 0 0 0 -.551.552v5.769a.552.552 0 0 0 .551.553h12.4a.552.552 0 0 0 .551-.553v-5.773a.552.552 0 0 0 -.551-.548z"/></svg>