<svg id="Layer_1" height="512" viewBox="0 0 90 90" width="512" xmlns="http://www.w3.org/2000/svg" data-name="Layer 1"><path d="m74.735 52.151a.5.5 0 0 1 -.473-.34 26.11 26.11 0 0 0 -1.04-2.6.5.5 0 1 1 .908-.418 26.932 26.932 0 0 1 1.079 2.7.5.5 0 0 1 -.474.659z"/><path d="m71.967 71.4h-11.722a7.8 7.8 0 0 1 -7.945-7.635v-27.291a4.119 4.119 0 0 1 4.184-4.041c1.976.129 5.863 2.656 7.071 3.531a.5.5 0 0 1 -.586.81c-1.785-1.293-5.09-3.249-6.517-3.342a3.113 3.113 0 0 0 -3.152 3.042v27.291a6.8 6.8 0 0 0 6.945 6.635h11.722a3.923 3.923 0 0 0 4.006-3.824c.043-2.424.1-7.215 0-8.058a.5.5 0 0 1 .441-.552.516.516 0 0 1 .553.441c.126 1.117.008 7.89 0 8.178a4.922 4.922 0 0 1 -5 4.815z"/><path d="m70.268 43.751a.5.5 0 0 1 -.4-.2c-.567-.76-1.158-1.48-1.755-2.139a.5.5 0 0 1 .741-.672c.619.684 1.23 1.428 1.815 2.213a.5.5 0 0 1 -.1.7.489.489 0 0 1 -.301.098z"/><path d="m29.7 71.4h-11.726a4.918 4.918 0 0 1 -5-4.819v-4.781a32.052 32.052 0 0 1 18.626-28.934 4.284 4.284 0 0 1 4.15.236 3.983 3.983 0 0 1 1.893 3.376v27.282a7.808 7.808 0 0 1 -7.943 7.64zm3.77-37.96a3.307 3.307 0 0 0 -1.434.329 31.059 31.059 0 0 0 -18.063 28.031v4.787a3.918 3.918 0 0 0 4 3.819h11.727a6.807 6.807 0 0 0 6.945-6.644v-27.284a2.954 2.954 0 0 0 -1.426-2.531 3.282 3.282 0 0 0 -1.749-.507z"/><path d="m58.417 50.615a.5.5 0 0 1 -.272-.92c.031-.02 3.111-2.043 3.272-4.5a.493.493 0 0 1 .531-.466.5.5 0 0 1 .467.531c-.194 2.962-3.584 5.182-3.727 5.275a.491.491 0 0 1 -.271.08z"/><path d="m70.387 55.034a.5.5 0 0 1 -.25-.066 7.314 7.314 0 0 0 -6.562-.154.5.5 0 0 1 -.468-.884 8.19 8.19 0 0 1 7.53.171.5.5 0 0 1 -.25.933z"/><path d="m67.046 62.372a.485.485 0 0 1 -.275-.083c-3.878-2.564-3.929-7.7-3.929-7.916a.5.5 0 0 1 .5-.5.5.5 0 0 1 .5.5c0 .048.055 4.819 3.479 7.084a.5.5 0 0 1 -.275.917z"/><path d="m58.635 57.9a.5.5 0 0 1 -.488-.386 9.638 9.638 0 0 1 .9-6.736.5.5 0 0 1 .856.516 8.787 8.787 0 0 0 -.785 5.993.5.5 0 0 1 -.374.6.488.488 0 0 1 -.109.013z"/><path d="m31.532 50.615a.488.488 0 0 1 -.27-.08c-.144-.093-3.534-2.313-3.728-5.275a.5.5 0 0 1 .466-.531.491.491 0 0 1 .531.466c.16 2.457 3.241 4.48 3.273 4.5a.5.5 0 0 1 -.273.92z"/><path d="m19.562 55.034a.5.5 0 0 1 -.25-.933 8.2 8.2 0 0 1 7.529-.171.5.5 0 0 1 -.467.884 7.32 7.32 0 0 0 -6.562.154.509.509 0 0 1 -.25.066z"/><path d="m22.9 62.372a.5.5 0 0 1 -.275-.917c3.425-2.265 3.48-7.036 3.48-7.084a.5.5 0 0 1 .5-.5.5.5 0 0 1 .5.5c0 .217-.05 5.352-3.929 7.916a.492.492 0 0 1 -.276.085z"/><path d="m31.314 57.9a.488.488 0 0 1 -.113-.012.5.5 0 0 1 -.374-.6 8.726 8.726 0 0 0 -.785-5.993.5.5 0 1 1 .857-.516 9.647 9.647 0 0 1 .9 6.736.5.5 0 0 1 -.485.385z"/><path d="m26.607 54.872a.5.5 0 0 1 -.327-.878l15.16-13.094v-21.2a.5.5 0 0 1 .317-.464 8.51 8.51 0 0 1 6.434 0 .5.5 0 0 1 .317.464v21.2l15.161 13.1a.5.5 0 0 1 -.654.756l-15.334-13.256a.5.5 0 0 1 -.173-.378v-21.081a7.507 7.507 0 0 0 -5.068 0v21.082a.5.5 0 0 1 -.172.378l-15.333 13.249a.5.5 0 0 1 -.328.122z"/></svg>