<svg id="Layer_1" height="512" viewBox="0 0 90 90" width="512" xmlns="http://www.w3.org/2000/svg" data-name="Layer 1"><path d="m63.357 53.036a.506.506 0 0 1 -.19-.037.5.5 0 0 1 -.273-.652 18.466 18.466 0 0 0 .622-1.746.5.5 0 1 1 .959.285c-.174.586-.389 1.187-.655 1.84a.5.5 0 0 1 -.463.31z"/><path d="m44.99 76.97c-3.653 0-6.514-1.7-6.514-3.873 0-1.545 1.441-2.9 3.708-3.515a10.453 10.453 0 0 0 -.792-4.03c-.091-.24-.186-.49-.285-.772a19.972 19.972 0 0 1 -7.3-3.06c-.243.122-.469.232-.686.337a11.485 11.485 0 0 0 -3.454 2.361c1.162 2.055 1.231 4.036.155 5.122-1.533 1.542-4.77.733-7.371-1.845a8.172 8.172 0 0 1 -2.651-5.28 2.826 2.826 0 0 1 .769-2.058c1.08-1.088 3.055-1.04 5.1.1a10.325 10.325 0 0 0 2.31-3.486c.105-.241.215-.494.344-.77a19.8 19.8 0 0 1 -3-7.3c-.269-.1-.513-.191-.744-.281a10.561 10.561 0 0 0 -4.171-.83c-.638 2.276-2 3.725-3.535 3.725-2.173.004-3.873-2.864-3.873-6.525s1.7-6.509 3.876-6.509c1.546 0 2.9 1.441 3.518 3.706a10.609 10.609 0 0 0 4.151-.822c.244-.094.5-.191.782-.292a19.9 19.9 0 0 1 3-7.273c-.144-.293-.269-.566-.39-.829a11.138 11.138 0 0 0 -2.26-3.443c-2.047 1.151-4.022 1.206-5.108.113a2.834 2.834 0 0 1 -.766-2.069 8.057 8.057 0 0 1 2.656-5.272c2.6-2.575 5.836-3.387 7.369-1.844 1.078 1.086 1.008 3.069-.154 5.126a11.514 11.514 0 0 0 3.45 2.352c.221.107.45.218.7.342a20 20 0 0 1 7.287-3.06c.1-.282.194-.532.285-.772a10.453 10.453 0 0 0 .792-4.03c-2.267-.618-3.708-1.97-3.708-3.515 0-2.172 2.861-3.873 6.514-3.873s6.534 1.7 6.534 3.873c0 1.536-1.449 2.895-3.727 3.532a10.293 10.293 0 0 0 .775 3.96c.089.236.183.483.28.76a19.842 19.842 0 0 1 7.463 3.019c.25-.128.482-.239.7-.347a10.956 10.956 0 0 0 3.306-2.272c-1.166-2.032-1.236-4-.153-5.092 1.533-1.542 4.764-.737 7.356 1.832a9.364 9.364 0 0 1 2.458 3.92 3.379 3.379 0 0 1 -.555 3.43c-1.078 1.084-3.063 1.031-5.13-.116a10.155 10.155 0 0 0 -2.156 3.216c-.111.242-.227.5-.366.779a19.833 19.833 0 0 1 3.21 7.643c.288.1.543.193.785.283a10.1 10.1 0 0 0 3.831.737c.619-2.265 1.973-3.706 3.519-3.706 2.176.004 3.876 2.864 3.876 6.513 0 3.325-1.744 7.045-4.077 7.045-1.94 0-2.931-2.71-3.336-4.242a12.929 12.929 0 0 0 -2.242.244.5.5 0 1 1 -.213-.976 15 15 0 0 1 2.831-.28.5.5 0 0 1 .5.387c.548 2.349 1.514 3.867 2.461 3.867 1.385 0 3.077-2.789 3.077-6.045 0-2.986-1.317-5.509-2.876-5.509-1.132 0-2.194 1.337-2.643 3.329a.5.5 0 0 1 -.5.389 11.471 11.471 0 0 1 -4.555-.811c-.307-.115-.635-.237-1.029-.365a.5.5 0 0 1 -.339-.389 18.855 18.855 0 0 0 -3.265-7.777.5.5 0 0 1 -.039-.517c.194-.378.343-.705.481-1.01a11.6 11.6 0 0 1 2.607-3.776.5.5 0 0 1 .626-.085c1.756 1.075 3.466 1.264 4.255.47a2.451 2.451 0 0 0 .3-2.45 8.374 8.374 0 0 0 -2.2-3.483c-2.122-2.105-4.843-2.945-5.943-1.838-.791.8-.589 2.486.5 4.205a.5.5 0 0 1 -.076.628 12.321 12.321 0 0 1 -3.853 2.727c-.289.139-.6.288-.94.468a.5.5 0 0 1 -.516-.03 18.87 18.87 0 0 0 -7.606-3.076.5.5 0 0 1 -.39-.335c-.127-.382-.249-.7-.363-1.006a11.706 11.706 0 0 1 -.853-4.686.5.5 0 0 1 .386-.5c2.007-.466 3.354-1.535 3.354-2.659 0-1.557-2.534-2.873-5.534-2.873s-5.514 1.316-5.514 2.873c0 1.131 1.338 2.192 3.331 2.639a.5.5 0 0 1 .39.5 11.874 11.874 0 0 1 -.87 4.76c-.116.3-.239.628-.367 1.01a.5.5 0 0 1 -.382.332 19.052 19.052 0 0 0 -7.435 3.125.5.5 0 0 1 -.518.034c-.339-.178-.646-.326-.936-.466a12.858 12.858 0 0 1 -4-2.8.5.5 0 0 1 -.078-.626c1.09-1.745 1.292-3.451.5-4.245-1.1-1.108-3.826-.262-5.955 1.85a7.166 7.166 0 0 0 -2.36 4.561 1.842 1.842 0 0 0 .475 1.36c.8.8 2.493.612 4.226-.468a.5.5 0 0 1 .627.081 12.381 12.381 0 0 1 2.715 4.005c.143.312.293.638.474 1a.51.51 0 0 1 .031.514.489.489 0 0 1 -.071.1 19.015 19.015 0 0 0 -3.023 7.37.5.5 0 0 1 -.332.385c-.385.13-.713.256-1.021.375a12.025 12.025 0 0 1 -4.884.9.5.5 0 0 1 -.5-.389c-.449-1.992-1.511-3.329-2.643-3.329-1.553-.001-2.87 2.518-2.87 5.508s1.317 5.529 2.876 5.529c1.125 0 2.2-1.347 2.664-3.351a.483.483 0 0 1 .5-.387 11.963 11.963 0 0 1 4.9.91c.3.116.615.239.985.367a.5.5 0 0 1 .329.385 18.852 18.852 0 0 0 3.06 7.436.5.5 0 0 1 .038.5c-.179.367-.319.689-.451.993a11.666 11.666 0 0 1 -2.751 4.048.527.527 0 0 1 -.684.075c-1.722-1.051-3.4-1.223-4.185-.433a1.833 1.833 0 0 0 -.477 1.352 7.167 7.167 0 0 0 2.355 4.571c2.129 2.111 4.857 2.958 5.957 1.851.787-.794.585-2.5-.5-4.241a.5.5 0 0 1 .078-.625 12.81 12.81 0 0 1 4-2.813c.289-.139.592-.286.928-.462a.5.5 0 0 1 .517.034 19.057 19.057 0 0 0 7.444 3.125.5.5 0 0 1 .383.332c.128.382.251.707.367 1.01a11.874 11.874 0 0 1 .87 4.76.5.5 0 0 1 -.39.5c-1.993.447-3.331 1.508-3.331 2.639 0 1.557 2.525 2.873 5.514 2.873s5.534-1.316 5.534-2.873c0-1.124-1.347-2.193-3.354-2.659a.5.5 0 0 1 -.386-.5 11.706 11.706 0 0 1 .853-4.686c.114-.3.236-.624.363-1.006a.5.5 0 0 1 .392-.335 19.006 19.006 0 0 0 7.6-3.067.5.5 0 0 1 .511-.031c.352.181.662.328.954.464a11.926 11.926 0 0 1 3.854 2.713.5.5 0 0 1 .075.628c-1.093 1.721-1.294 3.414-.5 4.212 1.1 1.107 3.822.266 5.942-1.838a8.374 8.374 0 0 0 2.2-3.483 2.448 2.448 0 0 0 -.3-2.45c-.787-.8-2.5-.607-4.254.468a.5.5 0 0 1 -.626-.085 11.59 11.59 0 0 1 -2.607-3.776c-.139-.3-.287-.63-.481-1.008a.5.5 0 1 1 .891-.455c.2.393.356.732.5 1.049a10.175 10.175 0 0 0 2.143 3.216c2.067-1.145 4.052-1.2 5.13-.113a3.377 3.377 0 0 1 .555 3.429 9.364 9.364 0 0 1 -2.458 3.92c-2.592 2.57-5.823 3.374-7.356 1.832-1.084-1.093-1.015-3.064.153-5.1a10.488 10.488 0 0 0 -3.3-2.254c-.226-.108-.463-.219-.721-.347a19.99 19.99 0 0 1 -7.454 3.01c-.1.277-.191.524-.28.76a10.293 10.293 0 0 0 -.775 3.96c2.278.637 3.727 2 3.727 3.532.003 2.174-2.867 3.875-6.531 3.875z"/><path d="m39.135 41.979c-2.686 0-4.87-1.847-4.87-4.118s2.184-4.108 4.87-4.108 4.879 1.843 4.879 4.108-2.189 4.118-4.879 4.118zm0-7.226c-2.134 0-3.87 1.394-3.87 3.108s1.736 3.118 3.87 3.118 3.879-1.4 3.879-3.118-1.74-3.108-3.879-3.108z"/><path d="m42.691 56.811c-2.92 0-5.3-2.005-5.3-4.47s2.375-4.459 5.3-4.459 5.309 2 5.309 4.459-2.383 4.47-5.309 4.47zm0-7.929c-2.368 0-4.3 1.552-4.3 3.459s1.927 3.47 4.3 3.47 4.309-1.557 4.309-3.47-1.935-3.459-4.309-3.459z"/><path d="m54.62 46.165c-2.258 0-4.1-1.557-4.1-3.471s1.838-3.462 4.1-3.462 4.088 1.553 4.088 3.462-1.834 3.471-4.088 3.471zm0-5.933c-1.707 0-3.1 1.105-3.1 2.462s1.389 2.471 3.1 2.471 3.088-1.108 3.088-2.471-1.385-2.462-3.088-2.462z"/></svg>