<svg id="Layer_1" height="512" viewBox="0 0 90 90" width="512" xmlns="http://www.w3.org/2000/svg" data-name="Layer 1"><path d="m52.15 54.311a.5.5 0 0 1 0-1c12.705 0 23.85-4.684 23.85-10.023 0-4.485-7.368-8.544-17.519-9.65a.5.5 0 0 1 -.443-.551.516.516 0 0 1 .551-.443c10.841 1.181 18.411 5.556 18.411 10.644 0 6.078-11.147 11.023-24.85 11.023z"/><path d="m73.167 49.021a.473.473 0 0 1 -.138-.021l-12.506-3.582a.5.5 0 0 1 -.342-.618.493.493 0 0 1 .618-.343l12.506 3.584a.5.5 0 0 1 -.138.98z"/><path d="m52.868 64.469a43.584 43.584 0 0 1 -16.417-2.9.5.5 0 1 1 .389-.921 42.573 42.573 0 0 0 16.028 2.824c12.755-.003 23.132-4.472 23.132-9.955v-10.229a.5.5 0 0 1 1 0v10.229c0 6.141-10.6 10.952-24.132 10.952z"/><path d="m44.1 26.771a.5.5 0 0 1 -.067-1 28.51 28.51 0 0 1 2.9-.244h.016a.5.5 0 0 1 .017 1 27.34 27.34 0 0 0 -2.794.235.4.4 0 0 1 -.072.009z"/><path d="m23.082 53.684a16.4 16.4 0 0 1 -5.845-.926 6.389 6.389 0 0 1 -3.791-3.3c-2.246-5.139 4.054-12.948 14.986-18.573a.5.5 0 0 1 .457.888c-10.277 5.289-16.522 12.719-14.527 17.282a5.438 5.438 0 0 0 3.237 2.77c4.854 1.88 13.454.654 21.9-3.122 11.668-5.218 19.372-13.547 17.175-18.567a5.193 5.193 0 0 0 -2.906-2.636.5.5 0 0 1 .392-.92 6.154 6.154 0 0 1 3.432 3.154c2.457 5.613-5.311 14.345-17.684 19.878a43.2 43.2 0 0 1 -16.826 4.072z"/><path d="m34.932 29.09a.5.5 0 0 1 -.172-.97c.858-.314 1.756-.615 2.669-.895a.5.5 0 1 1 .293.955c-.9.275-1.777.571-2.618.88a.519.519 0 0 1 -.172.03z"/><path d="m15.526 42.365a.5.5 0 0 1 -.069-1l40.771-5.794a.507.507 0 0 1 .565.425.5.5 0 0 1 -.425.565l-40.768 5.799a.581.581 0 0 1 -.074.005z"/><path d="m27.169 63.036a16.381 16.381 0 0 1 -5.841-.925 6.381 6.381 0 0 1 -3.787-3.3l-4.1-9.355a.5.5 0 1 1 .916-.4l4.1 9.354a5.43 5.43 0 0 0 3.232 2.77c4.855 1.879 13.452.651 21.9-3.124 11.668-5.216 19.375-13.543 17.18-18.564l-4.094-9.356a.5.5 0 0 1 .916-.4l4.094 9.357c2.455 5.614-5.314 14.345-17.685 19.874a43.215 43.215 0 0 1 -16.831 4.069z"/></svg>