<svg id="Layer_1" height="512" viewBox="0 0 90 90" width="512" xmlns="http://www.w3.org/2000/svg" data-name="Layer 1"><path d="m54.391 60.521a.5.5 0 0 1 -.216-.955 4.56 4.56 0 0 0 1.878-2.407.5.5 0 0 1 .947.32 5.565 5.565 0 0 1 -2.348 2.968.505.505 0 0 1 -.261.074z"/><path d="m68.736 61.1a.48.48 0 0 1 -.13-.018l-3.172-.855a.5.5 0 1 1 .259-.965l2.686.723 1.921-7.423-11.729-3.154a.5.5 0 0 1 -.362-.571 4.616 4.616 0 0 0 -3.279-5.285 4.367 4.367 0 0 0 -3.369.448 4.565 4.565 0 0 0 -2.135 2.831 4.643 4.643 0 0 0 .722 3.886.5.5 0 0 1 -.2.745 4.63 4.63 0 0 0 .527 8.585.5.5 0 1 1 -.3.955 5.635 5.635 0 0 1 -1.156-10.183 5.643 5.643 0 0 1 -.57-4.24 5.563 5.563 0 0 1 2.6-3.443 5.368 5.368 0 0 1 4.131-.549 5.617 5.617 0 0 1 4.068 5.972l11.784 3.168a.5.5 0 0 1 .355.607l-2.175 8.394a.5.5 0 0 1 -.485.375z"/><path d="m61.937 59.272a.5.5 0 0 1 -.131-.017l-1.539-.416a.5.5 0 0 1 .261-.965l1.539.416a.5.5 0 0 1 -.13.982z"/><path d="m38.213 61.257a5.534 5.534 0 0 1 -5.047-3.337l-11.775 3.164a.486.486 0 0 1 -.382-.051.5.5 0 0 1 -.233-.306l-2.176-8.391a.5.5 0 0 1 .355-.607l11.783-3.167a5.621 5.621 0 0 1 4.069-5.977 5.383 5.383 0 0 1 4.143.556 5.549 5.549 0 0 1 2.589 3.434 5.672 5.672 0 0 1 -.568 4.245 5.636 5.636 0 0 1 -1.371 10.252 5.339 5.339 0 0 1 -1.387.185zm-4.742-4.437a.5.5 0 0 1 .473.34 4.508 4.508 0 0 0 5.4 2.947 4.618 4.618 0 0 0 3.21-5.627 4.566 4.566 0 0 0 -2.5-3.017.5.5 0 0 1 -.2-.745 4.666 4.666 0 0 0 .721-3.893 4.554 4.554 0 0 0 -2.124-2.825 4.413 4.413 0 0 0 -3.381-.454 4.62 4.62 0 0 0 -3.279 5.29.5.5 0 0 1 -.362.572l-11.729 3.157 1.921 7.422 11.723-3.149a.491.491 0 0 1 .127-.018z"/><path d="m45 35.562a.5.5 0 0 1 -.5-.5v-5.822a.5.5 0 1 1 1 0v5.822a.5.5 0 0 1 -.5.5z"/><path d="m52.876 38.578a.5.5 0 0 1 -.422-.768l2.576-4.044a.5.5 0 1 1 .844.537l-2.574 4.044a.5.5 0 0 1 -.424.231z"/><path d="m37.124 38.578a.5.5 0 0 1 -.422-.231l-2.576-4.047a.5.5 0 1 1 .844-.537l2.576 4.044a.5.5 0 0 1 -.422.768z"/></svg>