<svg id="Layer_1" height="512" viewBox="0 0 90 90" width="512" xmlns="http://www.w3.org/2000/svg" data-name="Layer 1"><path d="m52.452 67.07a.5.5 0 0 1 -.5-.5v-2.97a.5.5 0 0 1 1 0v2.97a.5.5 0 0 1 -.5.5z"/><path d="m50.244 77h-10.834a2.364 2.364 0 0 1 -2.362-2.361v-33.161a.5.5 0 0 1 .5-.5h14.557a.5.5 0 0 1 .5.5v5.135a.5.5 0 0 1 -1 0v-4.635h-13.557v32.661a1.363 1.363 0 0 0 1.362 1.361h10.834a1.362 1.362 0 0 0 1.361-1.361v-2.368a.5.5 0 0 1 1 0v2.368a2.364 2.364 0 0 1 -2.361 2.361z"/><path d="m52.105 56.573a.5.5 0 0 1 -.5-.5v-2.773a.5.5 0 0 1 1 0v2.778a.5.5 0 0 1 -.5.495z"/><path d="m37.548 41.978a.5.5 0 0 1 -.389-.814l3.851-4.778-2.72-4.986a.491.491 0 0 1 -.05-.344l3.36-15.607a3.095 3.095 0 0 1 6.054 0l3.349 15.6a.5.5 0 0 1 -.048.34l-2.655 4.981 4.181 4.778a.5.5 0 1 1 -.752.659l-4.409-5.038a.5.5 0 0 1 -.065-.565l2.735-5.118-3.311-15.425a2.1 2.1 0 0 0 -4.1 0l-3.323 15.423 2.791 5.116a.5.5 0 0 1 -.049.553l-4.06 5.038a.5.5 0 0 1 -.39.187z"/></svg>