<svg id="Layer_1" height="512" viewBox="0 0 90 90" width="512" xmlns="http://www.w3.org/2000/svg" data-name="Layer 1"><path d="m39.284 74.254h-25.777a.5.5 0 0 1 -.5-.5v-32.154a.5.5 0 0 1 .113-.316l12.88-15.83a.516.516 0 0 1 .775 0l12.896 15.833a.5.5 0 0 1 .113.316v32.151a.5.5 0 0 1 -.5.5zm-25.277-1h24.777v-31.474l-12.393-15.218-12.384 15.218z"/><path d="m46.293 26.27h-2.768a.5.5 0 0 1 0-1h2.768a.5.5 0 0 1 0 1z"/><path d="m76.493 42.1h-37.209a.5.5 0 0 1 -.388-.185l-12.896-15.83a.5.5 0 0 1 .388-.815h10.457a.5.5 0 0 1 0 1h-9.4l12.076 14.83h36.016l-10.295-14.83h-2.754a.5.5 0 0 1 0-1h3.012a.5.5 0 0 1 .411.214l10.989 15.833a.5.5 0 0 1 -.41.786z"/><path d="m55.808 26.27h-2.834a.5.5 0 0 1 0-1h2.834a.5.5 0 0 1 0 1z"/><path d="m76.493 74.254h-37.209a.5.5 0 0 1 0-1h36.709v-31.654a.5.5 0 0 1 1 0v32.154a.5.5 0 0 1 -.5.5z"/><path d="m57.888 67.4a9.724 9.724 0 1 1 9.724-9.723 9.734 9.734 0 0 1 -9.724 9.723zm0-18.447a8.724 8.724 0 1 0 8.724 8.724 8.733 8.733 0 0 0 -8.724-8.723z"/><path d="m57.888 62.453a.5.5 0 0 1 -.5-.5v-8.553a.5.5 0 0 1 1 0v8.55a.5.5 0 0 1 -.5.503z"/><path d="m62.163 58.178h-8.55a.5.5 0 0 1 0-1h8.55a.5.5 0 0 1 0 1z"/><path d="m39.283 74.254a.5.5 0 0 1 -.236-.06c-7.808-4.2-12.9-15.825-13.115-16.318a.5.5 0 0 1 .918-.4c.05.118 5.171 11.805 12.671 15.834a.5.5 0 0 1 -.238.941z"/><path d="m13.508 74.254a.5.5 0 0 1 -.237-.941c7.5-4.029 12.61-15.715 12.661-15.834a.5.5 0 0 1 .918.4c-.213.493-5.3 12.123-13.106 16.318a.507.507 0 0 1 -.236.057z"/><path d="m26.391 58.178a.5.5 0 0 1 -.5-.5v-31.908a.5.5 0 0 1 1 0v31.908a.5.5 0 0 1 -.5.5z"/></svg>