<svg id="Layer_1" height="512" viewBox="0 0 90 90" width="512" xmlns="http://www.w3.org/2000/svg" data-name="Layer 1"><path d="m29.583 17.011h-2.683a.5.5 0 0 1 0-1h2.686a.5.5 0 0 1 0 1z"/><path d="m51.485 23.033h-37.985a.5.5 0 0 1 -.5-.5v-6.022a.5.5 0 0 1 .5-.5h6.912a.5.5 0 0 1 0 1h-6.412v5.022h36.985v-5.022h-5.679a.5.5 0 0 1 0-1h6.179a.5.5 0 0 1 .5.5v6.022a.5.5 0 0 1 -.5.5z"/><path d="m38.82 17.011h-2.751a.5.5 0 0 1 0-1h2.751a.5.5 0 0 1 0 1z"/><path d="m48.088 73.989h-31.188a.5.5 0 0 1 -.5-.5v-50.956a.5.5 0 0 1 1 0v50.456h30.188v-50.456a.5.5 0 0 1 1 0v50.956a.5.5 0 0 1 -.5.5z"/><path d="m38.978 73.989a.5.5 0 0 1 -.5-.5v-19.189h-11.971v19.189a.5.5 0 0 1 -1 0v-19.689a.5.5 0 0 1 .5-.5h12.971a.5.5 0 0 1 .5.5v19.689a.5.5 0 0 1 -.5.5z"/><path d="m76.5 73.989h-28.412a.5.5 0 1 1 0-1h27.912v-40.46h-27.912a.5.5 0 0 1 0-1h28.412a.5.5 0 0 1 .5.5v41.46a.5.5 0 0 1 -.5.5z"/><path d="m71.559 47.29h-23.471a.5.5 0 0 1 0-1h22.971v-6.1h-22.971a.5.5 0 0 1 0-1h23.471a.5.5 0 0 1 .5.5v7.1a.5.5 0 0 1 -.5.5z"/><path d="m71.559 66.331h-23.471a.5.5 0 0 1 0-1h22.971v-6.1h-22.971a.5.5 0 0 1 0-1h23.471a.5.5 0 0 1 .5.5v7.1a.5.5 0 0 1 -.5.5z"/><path d="m63.7 47.29a.5.5 0 0 1 -.5-.5v-7.1a.5.5 0 0 1 1 0v7.1a.5.5 0 0 1 -.5.5z"/><path d="m55.944 47.29a.5.5 0 0 1 -.5-.5v-7.1a.5.5 0 0 1 1 0v7.1a.5.5 0 0 1 -.5.5z"/><path d="m63.7 47.29a.5.5 0 0 1 -.5-.5v-7.1a.5.5 0 0 1 1 0v7.1a.5.5 0 0 1 -.5.5z"/><path d="m55.944 47.29a.5.5 0 0 1 -.5-.5v-7.1a.5.5 0 0 1 1 0v7.1a.5.5 0 0 1 -.5.5z"/><path d="m63.7 66.331a.5.5 0 0 1 -.5-.5v-7.1a.5.5 0 0 1 1 0v7.1a.5.5 0 0 1 -.5.5z"/><path d="m55.944 66.331a.5.5 0 0 1 -.5-.5v-7.1a.5.5 0 0 1 1 0v7.1a.5.5 0 0 1 -.5.5z"/><path d="m32.493 40.461a.5.5 0 0 1 -.5-.5v-10a.5.5 0 1 1 1 0v10a.5.5 0 0 1 -.5.5z"/><path d="m37.49 35.463h-10a.5.5 0 1 1 0-1h10a.5.5 0 0 1 0 1z"/></svg>