<svg id="Layer_1" height="512" viewBox="0 0 90 90" width="512" xmlns="http://www.w3.org/2000/svg" data-name="Layer 1"><path d="m18.769 47.075h-5.269a.5.5 0 0 1 -.5-.5v-23.6a.5.5 0 0 1 .5-.5h5.269a.5.5 0 0 1 .5.5v23.6a.5.5 0 0 1 -.5.5zm-4.769-1h4.269v-22.6h-4.269z"/><path d="m76.5 47.075h-5.269a.5.5 0 0 1 -.5-.5v-12.494a.5.5 0 0 1 .5-.5h5.269a.5.5 0 0 1 .5.5v12.494a.5.5 0 0 1 -.5.5zm-4.769-1h4.269v-11.494h-4.269z"/><path d="m46.536 41.806h-2.768a.5.5 0 0 1 0-1h2.768a.5.5 0 0 1 0 1z"/><path d="m37.086 41.806h-18.317a.5.5 0 0 1 0-1h18.317a.5.5 0 0 1 0 1z"/><path d="m71.231 47.075h-52.462a.5.5 0 1 1 0-1h52.462a.5.5 0 0 1 0 1z"/><path d="m71.231 41.806h-8.5a.5.5 0 0 1 0-1h8.5a.5.5 0 0 1 0 1z"/><path d="m56.053 41.806h-2.835a.5.5 0 0 1 0-1h2.835a.5.5 0 0 1 0 1z"/><path d="m69.26 51.153h-48.52a2.473 2.473 0 0 1 -2.471-2.468v-2.11a.5.5 0 0 1 1 0v2.11a1.472 1.472 0 0 0 1.471 1.468h48.52a1.472 1.472 0 0 0 1.471-1.468v-2.11a.5.5 0 0 1 1 0v2.11a2.473 2.473 0 0 1 -2.471 2.468z"/><path d="m28.682 41.811a.5.5 0 1 1 0-1 .532.532 0 0 0 .531-.531v-3.24a.531.531 0 0 0 -.531-.531h-8.882a.531.531 0 0 0 -.53.531.5.5 0 0 1 -1 0 1.531 1.531 0 0 1 1.53-1.531h8.883a1.532 1.532 0 0 1 1.531 1.531v3.24a1.533 1.533 0 0 1 -1.532 1.531z"/><path d="m65.813 59h-4.513a.5.5 0 0 1 -.5-.5v-7.847a.5.5 0 0 1 1 0v7.347h3.512v-7.347a.5.5 0 0 1 1 0v7.847a.5.5 0 0 1 -.499.5z"/><path d="m63.557 62.3a.5.5 0 0 1 -.5-.5v-3.3a.5.5 0 1 1 1 0v3.3a.5.5 0 0 1 -.5.5z"/><path d="m63.557 67.522a3.111 3.111 0 1 1 3.114-3.11 3.115 3.115 0 0 1 -3.114 3.11zm0-5.221a2.111 2.111 0 1 0 2.114 2.111 2.115 2.115 0 0 0 -2.114-2.112z"/><path d="m28.7 59h-4.513a.5.5 0 0 1 -.5-.5v-7.847a.5.5 0 0 1 1 0v7.347h3.513v-7.347a.5.5 0 0 1 1 0v7.847a.5.5 0 0 1 -.5.5z"/><path d="m26.443 62.3a.5.5 0 0 1 -.5-.5v-3.3a.5.5 0 0 1 1 0v3.3a.5.5 0 0 1 -.5.5z"/><path d="m26.443 67.522a3.111 3.111 0 1 1 3.114-3.11 3.115 3.115 0 0 1 -3.114 3.11zm0-5.221a2.111 2.111 0 1 0 2.114 2.111 2.115 2.115 0 0 0 -2.114-2.112z"/></svg>