<svg id="Layer_1" height="512" viewBox="0 0 90 90" width="512" xmlns="http://www.w3.org/2000/svg" data-name="Layer 1"><path d="m72.7 77h-54.79a.5.5 0 0 1 -.5-.491l-.251-14.409a.5.5 0 0 1 .491-.509.521.521 0 0 1 .509.491l.241 13.918h53.792l-.243-13.9a.5.5 0 0 1 .491-.509.513.513 0 0 1 .509.491l.251 14.409a.5.5 0 0 1 -.5.509z"/><path d="m72.279 52.981a.5.5 0 0 1 -.5-.491l-.2-11.587a27.239 27.239 0 0 0 -4.414-14.373.5.5 0 0 1 .835-.546 28.242 28.242 0 0 1 4.579 14.9l.2 11.587a.5.5 0 0 1 -.491.508z"/><path d="m54.423 15.969a.5.5 0 0 1 -.191-.038 23.167 23.167 0 0 0 -2.688-.915.5.5 0 1 1 .264-.965 24.366 24.366 0 0 1 2.805.955.5.5 0 0 1 -.19.963z"/><path d="m17.479 53.067a.5.5 0 0 1 -.5-.492l-.187-11.675a27.32 27.32 0 0 1 27.413-27.9.5.5 0 0 1 0 1 26.322 26.322 0 0 0 -26.413 26.886l.187 11.674a.5.5 0 0 1 -.493.507z"/><path d="m62.78 21.146a.5.5 0 0 1 -.333-.126 27.664 27.664 0 0 0 -2.272-1.828.5.5 0 1 1 .584-.812 29.28 29.28 0 0 1 2.354 1.893.5.5 0 0 1 -.333.873z"/><path d="m63.842 77a.5.5 0 0 1 -.5-.491l-.153-8.7h-36.071l.152 8.679a.5.5 0 0 1 -.492.509.512.512 0 0 1 -.508-.491l-.161-9.188a.5.5 0 0 1 .5-.509h37.072a.5.5 0 0 1 .5.492l.161 9.187a.5.5 0 0 1 -.491.509z"/><path d="m63.22 43.384a.5.5 0 0 1 -.5-.5c0-8.32-4.809-18.036-18.36-18.036a17.65 17.65 0 0 0 -17.712 18.027.5.5 0 0 1 -.491.509.489.489 0 0 1 -.509-.491 18.651 18.651 0 0 1 18.712-19.045c9.636 0 19.36 5.886 19.36 19.036a.5.5 0 0 1 -.5.5z"/><path d="m75.486 56.379h-60.972a.5.5 0 0 1 -.372-.834l11.634-13a.5.5 0 0 1 .372-.166h37.072a.5.5 0 0 1 .363.157l12.267 13a.5.5 0 0 1 -.364.843zm-59.853-1h58.694l-11.327-11.995h-36.628z"/><path d="m75.486 62.589h-60.972a.5.5 0 0 1 -.5-.5v-6.21a.5.5 0 0 1 1 0v5.71h59.972v-5.71a.5.5 0 0 1 1 0v6.21a.5.5 0 0 1 -.5.5z"/></svg>