<svg id="Layer_1" height="512" viewBox="0 0 90 90" width="512" xmlns="http://www.w3.org/2000/svg" data-name="Layer 1"><path d="m54.65 64.037a.489.489 0 0 1 -.268-.079.5.5 0 0 1 -.153-.689c.485-.763.981-1.543 1.476-2.343a.5.5 0 0 1 .85.526c-.5.8-.995 1.589-1.483 2.354a.5.5 0 0 1 -.422.231z"/><path d="m45 77a.5.5 0 0 1 -.376-.17 128.931 128.931 0 0 1 -10.537-14.343c-4.821-7.622-10.568-18.733-10.568-28.379a21.484 21.484 0 0 1 42.962 0 37.129 37.129 0 0 1 -2.589 12.7.5.5 0 0 1 -.938-.348 36.135 36.135 0 0 0 2.527-12.35 20.484 20.484 0 0 0 -40.962 0c0 16.686 17.665 38.286 20.482 41.623.825-.972 2.919-3.5 5.446-6.98a.5.5 0 1 1 .809.588c-3.288 4.529-5.855 7.462-5.88 7.491a.5.5 0 0 1 -.376.168z"/><path d="m59.461 55.9a.5.5 0 0 1 -.441-.733c.435-.825.871-1.669 1.279-2.522a.5.5 0 1 1 .9.432c-.413.865-.855 1.72-1.3 2.556a.5.5 0 0 1 -.438.267z"/><path d="m45 49.083a14.424 14.424 0 1 1 14.423-14.424 14.44 14.44 0 0 1 -14.423 14.424zm0-27.847a13.424 13.424 0 1 0 13.423 13.423 13.438 13.438 0 0 0 -13.423-13.423z"/><path d="m45 41.1a.5.5 0 0 1 -.5-.5v-11.877a.5.5 0 0 1 1 0v11.877a.5.5 0 0 1 -.5.5z"/><path d="m50.936 35.159h-11.872a.5.5 0 0 1 0-1h11.872a.5.5 0 0 1 0 1z"/></svg>