<?xml version="1.0" encoding="UTF-8"?>
<svg xmlns="http://www.w3.org/2000/svg" id="Layer_1" data-name="Layer 1" viewBox="0 0 90 90" width="512" height="512"><path d="M41.632,58.907a.478.478,0,0,1-.092-.009l-2.778-.515a.5.5,0,0,1,.181-.984l2.779.516a.5.5,0,0,1-.09.992Z"/><path d="M57.828,57.15a.5.5,0,0,1-.091-.991l4.7-.876,1.593-18.136A27.441,27.441,0,0,1,45.017,32.2c-4.869,3.654-11.28,5.3-19.055,4.908l1.6,18.175,4.7.876a.5.5,0,0,1,.4.583.506.506,0,0,1-.583.4L27,56.2a.5.5,0,0,1-.406-.448L24.915,36.62a.5.5,0,0,1,.141-.393.529.529,0,0,1,.388-.15c7.952.5,14.426-1.141,19.249-4.888a.5.5,0,0,1,.59-.017c6.126,4.212,12.424,5.818,19.238,4.909a.488.488,0,0,1,.412.134.5.5,0,0,1,.152.4l-1.68,19.129A.5.5,0,0,1,63,56.2l-5.078.945A.584.584,0,0,1,57.828,57.15Z"/><path d="M48.312,58.916a.5.5,0,0,1-.09-.992l2.835-.525a.5.5,0,0,1,.181.984l-2.835.525A.467.467,0,0,1,48.312,58.916Z"/><path d="M45,53.332a.507.507,0,0,1-.055,0L31.86,51.9a.5.5,0,0,1,.11-.994L45,52.329,58.03,50.9a.506.506,0,0,1,.552.442.5.5,0,0,1-.442.552L45.055,53.329A.507.507,0,0,1,45,53.332Z"/><path d="M45,48.2a.507.507,0,0,1-.055,0L31.86,46.76a.5.5,0,0,1,.11-.994L45,47.194l13.03-1.428a.506.506,0,0,1,.552.442.5.5,0,0,1-.442.552L45.055,48.194A.507.507,0,0,1,45,48.2Z"/><path d="M58.086,41.432a.525.525,0,0,1-.056,0L45,40,31.97,41.429a.506.506,0,0,1-.552-.443.5.5,0,0,1,.442-.551L44.945,39a.506.506,0,0,1,.11,0L58.14,40.435a.5.5,0,0,1-.054,1Z"/><path d="M62.907,56.205a.5.5,0,0,1-.261-.927l7.375-4.5A12.363,12.363,0,0,0,76,40.16a5.368,5.368,0,0,0-2.622-4.627,5.464,5.464,0,0,0-5.409-.162l-3.151,1.648a.5.5,0,0,1-.463-.886l3.15-1.648a6.456,6.456,0,0,1,6.391.192A6.363,6.363,0,0,1,77,40.16a13.36,13.36,0,0,1-6.457,11.469l-7.375,4.5A.5.5,0,0,1,62.907,56.205Z"/><path d="M27.093,56.205a.5.5,0,0,1-.261-.073l-7.375-4.5A13.36,13.36,0,0,1,13,40.16a6.363,6.363,0,0,1,3.1-5.483,6.463,6.463,0,0,1,6.392-.192l3.149,1.648a.5.5,0,0,1-.463.886l-3.15-1.648a5.461,5.461,0,0,0-5.41.162A5.368,5.368,0,0,0,14,40.16a12.363,12.363,0,0,0,5.979,10.615l7.375,4.5a.5.5,0,0,1-.261.927Z"/></svg>
