<svg id="Layer_1" height="512" viewBox="0 0 90 90" width="512" xmlns="http://www.w3.org/2000/svg" data-name="Layer 1"><path d="m31.841 68.464a.506.506 0 0 1 -.2-.042 30.606 30.606 0 0 1 -18.641-27.787.5.5 0 0 1 .5-.5h63a.5.5 0 0 1 .5.5 29.891 29.891 0 0 1 -.417 4.942.506.506 0 0 1 -.577.41.5.5 0 0 1 -.41-.577 28.868 28.868 0 0 0 .4-4.275h-61.996a29.634 29.634 0 0 0 18.042 26.371.5.5 0 0 1 -.2.958z"/><path d="m68.711 60.933a.5.5 0 0 1 -.367-.84c.578-.625 1.118-1.266 1.651-1.96a.5.5 0 0 1 .793.609c-.552.718-1.111 1.383-1.71 2.03a.5.5 0 0 1 -.367.161z"/><path d="m58.159 68.464a.5.5 0 0 1 -.2-.958 31.049 31.049 0 0 0 5.35-3.006.52.52 0 0 1 .792.409.5.5 0 0 1 -.27.446 32.048 32.048 0 0 1 -5.471 3.067.489.489 0 0 1 -.201.042z"/><path d="m73.541 53.85a.5.5 0 0 1 -.447-.724c.382-.764.7-1.484.976-2.2a.5.5 0 0 1 .473-.342.5.5 0 0 1 .5.5.547.547 0 0 1 -.033.188 25.211 25.211 0 0 1 -1.022 2.307.5.5 0 0 1 -.447.271z"/><path d="m58.159 74.112h-26.318a.5.5 0 0 1 -.5-.5v-5.652a.5.5 0 0 1 .5-.5h26.318a.5.5 0 0 1 .5.5v5.652a.5.5 0 0 1 -.5.5zm-25.818-1h25.318v-4.652h-25.318z"/><path d="m52.541 41.135a.5.5 0 0 1 -.151-.023.5.5 0 0 1 -.326-.628l6.615-20.847c1.343-4.6 6.011-3.691 6.21-3.651a5.378 5.378 0 0 1 4.281 5.787l-1.794 18.91a.494.494 0 0 1 -.545.45.5.5 0 0 1 -.45-.545l1.794-18.91a4.38 4.38 0 0 0 -3.488-4.713c-.162-.033-3.961-.77-5.051 2.963l-6.618 20.859a.5.5 0 0 1 -.477.348z"/></svg>