<svg id="Layer_1" height="512" viewBox="0 0 90 90" width="512" xmlns="http://www.w3.org/2000/svg" data-name="Layer 1"><path d="m20.775 63.753a.5.5 0 0 1 -.487-.387l-7.058-30.558a.5.5 0 1 1 .975-.225l7.058 30.558a.5.5 0 0 1 -.375.6.488.488 0 0 1 -.113.012z"/><path d="m69.288 63.756a.482.482 0 0 1 -.112-.013.5.5 0 0 1 -.375-.6l7.1-30.811a.5.5 0 0 1 .975.224l-7.1 30.811a.5.5 0 0 1 -.488.389z"/><path d="m45.008 39.489a122.269 122.269 0 0 1 -17-1.122c-4.562-.659-15.153-2.618-15.008-6.594.107-3.072 6.926-5.978 16.967-7.231a.5.5 0 0 1 .123.992c-10.354 1.292-16.018 4.2-16.09 6.275-.06 1.618 3.61 4.047 14.148 5.568a121.306 121.306 0 0 0 16.859 1.112 120.929 120.929 0 0 0 16.857-1.112c10.529-1.519 14.195-3.949 14.136-5.567-.072-2.078-5.73-4.983-16.075-6.276a.5.5 0 1 1 .125-.992c10.029 1.258 16.842 4.158 16.95 7.232.146 3.976-10.436 5.935-14.991 6.593a121.906 121.906 0 0 1 -17.001 1.122z"/><path d="m57.856 69.442a.5.5 0 0 1 -.086-.992c6.154-1.1 10.181-3.055 11.05-5.37a.5.5 0 0 1 .936.352c-1.01 2.693-5.2 4.824-11.811 6a.526.526 0 0 1 -.089.01z"/><path d="m41.659 70.378h-.02q-1.443-.057-2.8-.173a.5.5 0 0 1 -.456-.54.519.519 0 0 1 .54-.456q1.334.113 2.756.17a.5.5 0 0 1 -.021 1z"/><path d="m32.2 69.271a.486.486 0 0 1 -.1-.011c-6.048-1.231-10.445-3.386-11.762-5.764a.5.5 0 0 1 .875-.485c1.159 2.093 5.407 4.113 11.086 5.27a.5.5 0 0 1 -.1.99z"/><path d="m48.341 70.4a.5.5 0 0 1 -.02-1q1.455-.057 2.824-.142a.49.49 0 0 1 .53.468.5.5 0 0 1 -.468.53q-1.38.086-2.847.143z"/><path d="m28.079 38.372a.487.487 0 0 1 -.079-.006.5.5 0 0 1 -.419-.569l1.951-12.834a6.2 6.2 0 0 1 6.117-5.36h18.714a6.2 6.2 0 0 1 6.117 5.36l1.951 12.837a.5.5 0 0 1 -.989.15l-1.95-12.834a5.21 5.21 0 0 0 -5.129-4.51h-18.711a5.211 5.211 0 0 0 -5.129 4.51l-1.951 12.831a.5.5 0 0 1 -.493.425z"/><path d="m43.871 61.611a.5.5 0 0 1 -.5-.5v-13.759a.5.5 0 0 1 1 0v13.759a.5.5 0 0 1 -.5.5z"/><path d="m50.584 54.731h-13.426a.5.5 0 0 1 0-1h13.426a.5.5 0 0 1 0 1z"/></svg>