<svg id="Layer_1" height="512" viewBox="0 0 90 90" width="512" xmlns="http://www.w3.org/2000/svg" data-name="Layer 1"><path d="m21.514 53.466a.5.5 0 0 1 -.5-.5v-2.789a.5.5 0 0 1 1 0v2.789a.5.5 0 0 1 -.5.5z"/><path d="m68.486 77h-46.972a.5.5 0 0 1 -.5-.5v-16.823a.5.5 0 0 1 1 0v16.323h45.972v-47.914l-14.086-14.086h-31.886v19.909a.5.5 0 0 1 -1 0v-20.409a.5.5 0 0 1 .5-.5h32.593a.5.5 0 0 1 .353.146l14.379 14.38a.5.5 0 0 1 .147.353v48.621a.5.5 0 0 1 -.5.5z"/><path d="m21.514 43.966a.5.5 0 0 1 -.5-.5v-2.847a.5.5 0 0 1 1 0v2.847a.5.5 0 0 1 -.5.5z"/><path d="m68.486 28.379h-14.379a.5.5 0 0 1 -.5-.5v-14.379a.5.5 0 0 1 1 0v13.879h13.879a.5.5 0 0 1 0 1z"/><path d="m62.45 44.487h-34.9a.5.5 0 0 1 0-1h34.9a.5.5 0 0 1 0 1z"/><path d="m62.45 52.849h-34.9a.5.5 0 0 1 0-1h34.9a.5.5 0 0 1 0 1z"/><path d="m62.45 61.21h-34.9a.5.5 0 0 1 0-1h34.9a.5.5 0 0 1 0 1z"/><path d="m62.45 69.572h-34.9a.5.5 0 1 1 0-1h34.9a.5.5 0 0 1 0 1z"/><path d="m36.4 33.14a.5.5 0 0 1 -.5-.5v-7.429a.5.5 0 0 1 1 0v7.429a.5.5 0 0 1 -.5.5z"/><path d="m40.118 29.425h-7.429a.5.5 0 0 1 0-1h7.429a.5.5 0 0 1 0 1z"/><path d="m36.4 37.422a8.5 8.5 0 1 1 8.5-8.5 8.507 8.507 0 0 1 -8.5 8.5zm0-15.994a7.5 7.5 0 1 0 7.5 7.5 7.506 7.506 0 0 0 -7.5-7.5z"/></svg>