<svg id="Layer_1" height="512" viewBox="0 0 90 90" width="512" xmlns="http://www.w3.org/2000/svg" data-name="Layer 1"><path d="m55.073 28.528a3.975 3.975 0 1 1 2.81-1.164 3.946 3.946 0 0 1 -2.81 1.164zm0-6.948a2.974 2.974 0 0 0 -2.1 5.077 3.045 3.045 0 0 0 4.206 0 2.974 2.974 0 0 0 -2.1-5.077z"/><path d="m52.616 27.51a.5.5 0 0 1 -.353-.853l4.913-4.914a.5.5 0 0 1 .707.707l-4.913 4.914a.5.5 0 0 1 -.354.146z"/><path d="m55.073 42.027a3.975 3.975 0 1 1 2.81-1.164 3.946 3.946 0 0 1 -2.81 1.164zm0-6.947a2.973 2.973 0 0 0 -2.1 5.076 3.045 3.045 0 0 0 4.206 0 2.973 2.973 0 0 0 -2.1-5.076z"/><path d="m52.616 41.01a.5.5 0 0 1 -.353-.854l4.913-4.914a.5.5 0 0 1 .707.707l-4.913 4.914a.5.5 0 0 1 -.354.147z"/><path d="m55.073 55.526a3.975 3.975 0 1 1 2.81-6.784 3.974 3.974 0 0 1 -2.81 6.784zm0-6.949a2.975 2.975 0 0 0 -2.1 5.078 3.043 3.043 0 0 0 4.206 0 2.974 2.974 0 0 0 0-4.206 2.956 2.956 0 0 0 -2.106-.872z"/><path d="m52.616 54.509a.5.5 0 0 1 -.353-.854l4.913-4.913a.5.5 0 0 1 .707.707l-4.913 4.913a.5.5 0 0 1 -.354.147z"/><path d="m55.073 69.024a3.973 3.973 0 0 1 -2.81-6.783 4.069 4.069 0 0 1 5.62 0 3.973 3.973 0 0 1 -2.81 6.783zm0-6.947a2.974 2.974 0 1 0 2.1.871 2.955 2.955 0 0 0 -2.1-.871z"/><path d="m52.616 68.009a.5.5 0 0 1 -.353-.854l4.913-4.914a.5.5 0 0 1 .707.707l-4.913 4.914a.5.5 0 0 1 -.354.147z"/><path d="m64.916 47.836a.5.5 0 0 1 -.5-.5v-2.782a.5.5 0 0 1 1 0v2.782a.5.5 0 0 1 -.5.5z"/><path d="m62.038 77h-34.076a3.382 3.382 0 0 1 -3.378-3.378v-57.244a3.381 3.381 0 0 1 3.378-3.378h34.076a3.381 3.381 0 0 1 3.378 3.378v11.9a.5.5 0 0 1 -1 0v-11.9a2.381 2.381 0 0 0 -2.378-2.378h-34.076a2.381 2.381 0 0 0 -2.378 2.378v57.244a2.38 2.38 0 0 0 2.378 2.378h34.076a2.38 2.38 0 0 0 2.378-2.378v-19.57a.5.5 0 1 1 1 0v19.57a3.382 3.382 0 0 1 -3.378 3.378z"/><path d="m64.916 38.338a.5.5 0 0 1 -.5-.5v-2.849a.5.5 0 0 1 1 0v2.849a.5.5 0 0 1 -.5.5z"/><path d="m45 70.72a.5.5 0 0 1 -.5-.5v-50.441a.5.5 0 1 1 1 0v50.441a.5.5 0 0 1 -.5.5z"/><path d="m34.927 28.526a3.973 3.973 0 1 1 2.81-1.162 3.96 3.96 0 0 1 -2.81 1.162zm0-6.946a2.974 2.974 0 1 0 2.1.87 2.966 2.966 0 0 0 -2.1-.87z"/><path d="m32.47 27.51a.5.5 0 0 1 -.353-.853l4.913-4.914a.5.5 0 0 1 .707.707l-4.913 4.914a.5.5 0 0 1 -.354.146z"/><path d="m34.927 42.025a3.973 3.973 0 1 1 2.81-1.162 3.96 3.96 0 0 1 -2.81 1.162zm0-6.945a2.973 2.973 0 1 0 2.1.869 2.965 2.965 0 0 0 -2.1-.869z"/><path d="m32.47 41.01a.5.5 0 0 1 -.353-.854l4.913-4.914a.5.5 0 0 1 .707.707l-4.913 4.914a.5.5 0 0 1 -.354.147z"/><path d="m34.927 55.526a3.975 3.975 0 0 1 -2.811-6.784 4.069 4.069 0 0 1 5.621 0 3.974 3.974 0 0 1 -2.81 6.784zm0-6.949a2.975 2.975 0 0 0 -2.1 5.078 3.044 3.044 0 0 0 4.206 0 2.974 2.974 0 0 0 0-4.206 2.956 2.956 0 0 0 -2.106-.872z"/><path d="m32.47 54.509a.5.5 0 0 1 -.353-.854l4.913-4.913a.5.5 0 0 1 .707.707l-4.913 4.913a.5.5 0 0 1 -.354.147z"/><path d="m34.927 69.024a3.973 3.973 0 0 1 -2.811-6.783 4.069 4.069 0 0 1 5.621 0 3.973 3.973 0 0 1 -2.81 6.783zm0-6.947a2.974 2.974 0 1 0 2.1.871 2.955 2.955 0 0 0 -2.1-.871z"/><path d="m32.47 68.009a.5.5 0 0 1 -.353-.854l4.913-4.914a.5.5 0 0 1 .707.707l-4.913 4.914a.5.5 0 0 1 -.354.147z"/></svg>