<svg id="Layer_1" height="512" viewBox="0 0 90 90" width="512" xmlns="http://www.w3.org/2000/svg" data-name="Layer 1"><path d="m22.831 77a3.585 3.585 0 0 1 -3.579-3.583c0-1.79 2.829-6.534 3.151-7.069a.519.519 0 0 1 .856 0c.323.535 3.151 5.279 3.151 7.069a3.585 3.585 0 0 1 -3.579 3.583zm0-9.406c-.982 1.711-2.579 4.723-2.579 5.823a2.579 2.579 0 1 0 5.158 0c0-1.101-1.597-4.117-2.579-5.823z"/><path d="m22.831 61.48a.494.494 0 0 1 -.353-.146.5.5 0 0 1 0-.707l8.922-8.938a.5.5 0 0 1 .708.707l-8.925 8.938a.5.5 0 0 1 -.352.146z"/><path d="m42.537 31.859a.5.5 0 0 1 -.354-.852l1.709-1.718a.5.5 0 0 1 .709.7l-1.709 1.718a.5.5 0 0 1 -.355.152z"/><path d="m39.339 54.845a.5.5 0 0 1 -.354-.147l-9.879-9.9a.5.5 0 0 1 0-.707l3.341-3.351a.5.5 0 1 1 .708.707l-2.989 3 9.173 9.191 21.172-21.2a.5.5 0 0 1 .708.707l-21.526 21.555a.5.5 0 0 1 -.354.145z"/><path d="m48.274 26.113a.5.5 0 0 1 -.354-.852l2.7-2.711a.5.5 0 1 1 .708.7l-2.7 2.711a.5.5 0 0 1 -.354.152z"/><path d="m36.829 37.567a.5.5 0 0 1 -.353-.853l1.68-1.68a.5.5 0 0 1 .707.707l-1.68 1.68a.5.5 0 0 1 -.354.146z"/><path d="m34.1 54.892a.5.5 0 0 1 -.354-.147l-4.691-4.7a.5.5 0 0 1 0-.707l2.645-2.638a.5.5 0 0 1 .708.707l-2.288 2.291 3.984 3.99 2.287-2.29a.5.5 0 0 1 .708.707l-2.641 2.644a.5.5 0 0 1 -.358.143z"/><path d="m58.247 30.678a.5.5 0 0 1 -.354-.854l7.607-7.624a.5.5 0 0 1 .708.707l-7.608 7.624a.5.5 0 0 1 -.353.147z"/><path d="m53.593 26.018a.5.5 0 0 1 -.354-.854l7.611-7.621a.5.5 0 0 1 .708.707l-7.611 7.621a.5.5 0 0 1 -.354.147z"/><path d="m67.688 24.89a.5.5 0 0 1 -.354-.147l-8.315-8.326a.5.5 0 0 1 0-.707l2.56-2.564a.517.517 0 0 1 .708 0l8.313 8.327a.5.5 0 0 1 0 .707l-2.56 2.563a.5.5 0 0 1 -.352.147zm-7.608-8.827 7.608 7.619 1.854-1.856-7.609-7.618z"/><path d="m56.733 37.43a.5.5 0 0 1 -.354-.147l-1.649-1.65a.5.5 0 0 1 .708-.707l1.649 1.65a.5.5 0 0 1 -.354.854z"/><path d="m53.444 40.723a.5.5 0 0 1 -.354-.147l-2.751-2.755a.5.5 0 0 1 .708-.707l2.753 2.755a.5.5 0 0 1 -.354.854z"/><path d="m50.156 44.016a.5.5 0 0 1 -.354-.147l-1.648-1.65a.5.5 0 1 1 .708-.707l1.648 1.65a.5.5 0 0 1 -.354.854z"/><path d="m46.868 47.309a.5.5 0 0 1 -.354-.147l-2.751-2.755a.5.5 0 0 1 .708-.707l2.751 2.755a.5.5 0 0 1 -.354.854z"/><path d="m43.579 50.6a.5.5 0 0 1 -.353-.147l-1.649-1.653a.5.5 0 0 1 .707-.707l1.649 1.65a.5.5 0 0 1 -.354.854z"/><path d="m63.637 36.076a.5.5 0 0 1 -.354-.146l-15.435-15.456a.5.5 0 0 1 .708-.707l15.435 15.456a.5.5 0 0 1 -.354.853z"/></svg>