<svg id="Layer_1" height="512" viewBox="0 0 90 90" width="512" xmlns="http://www.w3.org/2000/svg" data-name="Layer 1"><path d="m76.413 53.818a.5.5 0 0 1 -.371-.164c-7.5-8.29-15.509-10.113-20.9-10.181a24.549 24.549 0 0 0 -10.042 1.86c-19.071 7.636-31.776-8.309-31.9-8.47a.5.5 0 0 1 .789-.615c.111.152 12.374 15.508 30.711 8.169.143-.07 17.218-7.861 32.089 8.565a.5.5 0 0 1 -.371.836z"/><path d="m53.3 77a.5.5 0 0 1 -.336-.13c-8.556-7.784-10.424-16.117-10.486-21.737a25.874 25.874 0 0 1 1.951-10.465c7.315-18.377-8-30.652-8.158-30.774a.5.5 0 1 1 .616-.788c.161.126 16.059 12.867 8.459 31.959-.089.193-7.533 16.664 8.286 31.065a.5.5 0 0 1 -.332.87z"/><path d="m16.736 40.254a.5.5 0 0 1 -.354-.854l23.033-23.095a.5.5 0 1 1 .708.707l-23.033 23.095a.5.5 0 0 1 -.354.147z"/><path d="m22.6 44.305a.5.5 0 0 1 -.354-.854l21.208-21.269a.5.5 0 1 1 .708.707l-21.211 21.269a.5.5 0 0 1 -.351.147z"/><path d="m29.88 46.941a.5.5 0 0 1 -.354-.853l16.557-16.6a.5.5 0 0 1 .709.707l-16.558 16.605a.5.5 0 0 1 -.354.141z"/><path d="m64.363 59.542a.5.5 0 0 1 -.354-.854l1.871-1.871a.5.5 0 0 1 .707.707l-1.871 1.876a.5.5 0 0 1 -.353.142z"/><path d="m50.154 73.789a.5.5 0 0 1 -.354-.853l3.585-3.6a.5.5 0 1 1 .708.707l-3.585 3.595a.5.5 0 0 1 -.354.151z"/><path d="m58.139 65.784a.5.5 0 0 1 -.354-.852l1.832-1.842a.5.5 0 1 1 .709.7l-1.832 1.842a.5.5 0 0 1 -.355.152z"/><path d="m70.634 53.261a.5.5 0 0 1 -.354-.853l2.58-2.59a.5.5 0 1 1 .708.705l-2.58 2.59a.5.5 0 0 1 -.354.148z"/><path d="m46.112 67.92a.5.5 0 0 1 -.354-.854l21.242-21.304a.5.5 0 1 1 .708.707l-21.246 21.3a.5.5 0 0 1 -.35.151z"/><path d="m43.5 60.6a.5.5 0 0 1 -.354-.854l16.561-16.606a.5.5 0 1 1 .708.707l-16.564 16.609a.5.5 0 0 1 -.351.144z"/></svg>