<svg id="Layer_1" height="512" viewBox="0 0 90 90" width="512" xmlns="http://www.w3.org/2000/svg" data-name="Layer 1"><path d="m54.1 75.262a9.835 9.835 0 0 1 -9.6-10.035.5.5 0 0 1 1 0 8.834 8.834 0 0 0 8.6 9.035 8.692 8.692 0 0 0 8.483-7.588.5.5 0 1 1 .988.15 9.685 9.685 0 0 1 -9.471 8.438z"/><path d="m62.4 67.275c-1.735 0-6.124-.419-8.3-4.43a.5.5 0 0 1 .879-.477c2.419 4.457 7.986 3.891 8.042 3.884a8.849 8.849 0 0 0 7.67-8.978 9.145 9.145 0 0 0 -.556-3.174.5.5 0 1 1 .937-.346 10.112 10.112 0 0 1 .619 3.52 9.847 9.847 0 0 1 -8.559 9.972c-.014.001-.285.029-.732.029z"/><path d="m67.19 55.043a8.247 8.247 0 0 1 -4.968-1.58.5.5 0 0 1 .591-.8c3.3 2.423 7.172.978 7.6.8a9.2 9.2 0 0 0 0-16.921.5.5 0 0 1 .365-.932 10.2 10.2 0 0 1 0 18.783 10.3 10.3 0 0 1 -3.588.65z"/><path d="m45 65.727a.5.5 0 0 1 -.5-.5v-40.453a.5.5 0 0 1 1 0v40.453a.5.5 0 0 1 -.5.5z"/><path d="m35.9 75.262a9.688 9.688 0 0 1 -9.471-8.437.5.5 0 1 1 .988-.152 8.7 8.7 0 0 0 8.483 7.589 9.075 9.075 0 0 0 .939-18.026.5.5 0 0 1 -.441-.553.506.506 0 0 1 .554-.441 10.074 10.074 0 0 1 -1.052 20.02z"/><path d="m26.926 67.249a.563.563 0 0 1 -.058 0 9.874 9.874 0 0 1 -8.558-9.984 10.078 10.078 0 0 1 .619-3.508 9.78 9.78 0 0 1 6.258-6.118.5.5 0 1 1 .294.955 8.786 8.786 0 0 0 -5.612 5.5 9.1 9.1 0 0 0 -.559 3.168 8.872 8.872 0 0 0 7.671 8.99.5.5 0 0 1 -.055 1z"/><path d="m45 25.274a.5.5 0 0 1 -.5-.5 8.833 8.833 0 0 0 -8.6-9.033 8.692 8.692 0 0 0 -8.483 7.588.5.5 0 1 1 -.988-.15 9.685 9.685 0 0 1 9.471-8.438 9.834 9.834 0 0 1 9.6 10.033.5.5 0 0 1 -.5.5z"/><path d="m19.4 36.576a.5.5 0 0 1 -.468-.327 10.112 10.112 0 0 1 -.619-3.52 9.846 9.846 0 0 1 8.56-9.972c1.06-.125 6.438-.494 9.033 4.4a.5.5 0 1 1 -.882.469c-2.292-4.32-7.087-3.992-8.023-3.881a8.852 8.852 0 0 0 -7.688 8.98 9.145 9.145 0 0 0 .556 3.174.5.5 0 0 1 -.3.642.494.494 0 0 1 -.169.035z"/><path d="m19.4 54.427a.506.506 0 0 1 -.182-.034 10.2 10.2 0 0 1 0-18.783c1.216-.485 5.686-.943 8.54.912a.5.5 0 0 1 -.545.838c-2.539-1.651-6.709-1.186-7.627-.82a9.2 9.2 0 0 0 0 16.921.5.5 0 0 1 -.183.966z"/><path d="m42.312 46.2a9.833 9.833 0 0 1 -6.97-2.98.5.5 0 0 1 .746-.665 8.8 8.8 0 0 0 8.775 2.278.5.5 0 0 1 .274.963 10.344 10.344 0 0 1 -2.825.404z"/><path d="m56.646 53.086a.5.5 0 0 1 -.5-.476c-.25-5.192 4.712-7 4.763-7.021a.5.5 0 0 1 .333.943c-.176.063-4.31 1.591-4.1 6.03a.5.5 0 0 1 -.475.523z"/><path d="m28.008 61.8a.5.5 0 0 1 -.308-.1c-4.374-3.461-1.739-8.331-1.712-8.38a.5.5 0 0 1 .874.486 5.588 5.588 0 0 0 1.459 7.109.5.5 0 0 1 -.31.893z"/><path d="m53.105 34.763a.544.544 0 0 1 -.057 0 9.866 9.866 0 0 1 -8.548-9.989 9.835 9.835 0 0 1 9.6-10.036 9.163 9.163 0 0 1 5.268 1.656.5.5 0 1 1 -.572.82 8.161 8.161 0 0 0 -4.7-1.476 8.835 8.835 0 0 0 -8.6 9.036 8.867 8.867 0 0 0 7.661 8.992.5.5 0 0 1 -.056 1z"/><path d="m62.964 23.184a.5.5 0 0 1 -.489-.4 8.211 8.211 0 0 0 -.63-1.907.5.5 0 0 1 .9-.432 9.256 9.256 0 0 1 .708 2.14.5.5 0 0 1 -.391.59.485.485 0 0 1 -.098.009z"/><path d="m69.369 27.527a.5.5 0 0 1 -.411-.215 8.237 8.237 0 0 0 -1.35-1.5.5.5 0 0 1 .659-.752 9.214 9.214 0 0 1 1.513 1.685.5.5 0 0 1 -.411.785z"/><path d="m64.664 42.39a.5.5 0 0 1 -.147-.978 8.772 8.772 0 0 0 5.612-5.5 9.135 9.135 0 0 0 .563-3.165.5.5 0 1 1 1 0 10.135 10.135 0 0 1 -.622 3.5 9.769 9.769 0 0 1 -6.258 6.119.476.476 0 0 1 -.148.024z"/></svg>