<svg id="Layer_1" height="512" viewBox="0 0 90 90" width="512" xmlns="http://www.w3.org/2000/svg" data-name="Layer 1"><path d="m30.668 45.987a5.524 5.524 0 0 1 -1.668-.258 5.526 5.526 0 1 1 1.666.258zm-1.368-1.211a4.528 4.528 0 0 0 5.679-2.939 4.53 4.53 0 0 0 -2.96-5.669 4.53 4.53 0 0 0 -5.679 2.94 4.527 4.527 0 0 0 2.96 5.668z"/><path d="m69.431 25.652a.5.5 0 0 1 -.391-.187 26.481 26.481 0 0 0 -1.94-2.174.5.5 0 1 1 .707-.707 27.6 27.6 0 0 1 2.013 2.256.5.5 0 0 1 -.39.812z"/><path d="m45.059 76.985a31.98 31.98 0 1 1 8.641-62.748.5.5 0 0 1 -.272.963 30.992 30.992 0 1 0 19.551 16.5.5.5 0 1 1 .9-.431 31.982 31.982 0 0 1 -28.82 45.716z"/><path d="m62.222 19.161a.49.49 0 0 1 -.279-.086 24.458 24.458 0 0 0 -2.343-1.384.5.5 0 0 1 .464-.886 25.038 25.038 0 0 1 2.436 1.442.5.5 0 0 1 -.28.914z"/><path d="m34.572 56.334a14.622 14.622 0 1 1 13.963-10.218 14.591 14.591 0 0 1 -13.963 10.218zm-.006-28.256a13.654 13.654 0 1 0 4.106.636 13.652 13.652 0 0 0 -4.106-.636z"/><path d="m71.882 61.929a.5.5 0 0 1 -.5-.49c-.187-9.014-3.568-12.756-3.6-12.793a.5.5 0 1 1 .732-.68c.15.161 3.675 4.061 3.87 13.452a.5.5 0 0 1 -.489.511z"/><path d="m71.1 55.447a.5.5 0 0 1 -.3-.1 8.111 8.111 0 0 0 -7.1-1.518.5.5 0 0 1 -.326-.945 9.089 9.089 0 0 1 8.026 1.661.5.5 0 0 1 -.3.9z"/><path d="m61.076 72.574a.5.5 0 0 1 -.43-.244c-3.117-5.24-1.18-12.17-1.1-12.462a.5.5 0 1 1 .961.276c-.019.067-1.9 6.811.994 11.674a.5.5 0 0 1 -.174.686.493.493 0 0 1 -.251.07z"/><path d="m59.431 66.892a.5.5 0 0 1 -.421-.23c-1.177-1.829-5.516-2.666-7.089-2.835a.5.5 0 0 1 -.444-.55.492.492 0 0 1 .55-.444c.25.026 6.147.684 7.824 3.288a.5.5 0 0 1 -.15.691.494.494 0 0 1 -.27.08z"/><path d="m54.109 75.634a.5.5 0 0 1 -.223-.053 13.194 13.194 0 0 1 -4.747-4.352.5.5 0 0 1 .848-.53 12.392 12.392 0 0 0 4.346 3.988.5.5 0 0 1 -.224.947z"/><path d="m40.917 76.706a.488.488 0 0 1 -.279-.086c-3.857-2.606-4.971-8.682-5.016-8.94a.5.5 0 1 1 .984-.174c.011.058 1.089 5.919 4.591 8.286a.5.5 0 0 1 -.28.914z"/><path d="m37.615 72.581a.516.516 0 0 1 -.163-.027.5.5 0 0 1 -.31-.635c.046-.134 1.146-3.274 3.286-4.231a.5.5 0 1 1 .408.912c-1.742.78-2.739 3.616-2.749 3.644a.5.5 0 0 1 -.472.337z"/></svg>