<svg id="Layer_1" height="512" viewBox="0 0 90 90" width="512" xmlns="http://www.w3.org/2000/svg" data-name="Layer 1"><path d="m23.052 41.546a.5.5 0 0 1 -.5-.5v-19.964a3.987 3.987 0 0 0 -3.978-3.988h-3.037a.5.5 0 1 1 0-1h3.037a4.988 4.988 0 0 1 4.978 4.988v19.964a.5.5 0 0 1 -.5.5z"/><path d="m17.9 68.484a.5.5 0 0 1 -.372-.167 17.156 17.156 0 0 1 -1.809-2.4.5.5 0 1 1 .85-.527 16.28 16.28 0 0 0 1.7 2.259.5.5 0 0 1 -.373.833z"/><path d="m33.887 73.906a.5.5 0 0 1 -.092-.991 16.722 16.722 0 1 0 -19.795-16.432.5.5 0 1 1 -1 0 17.69 17.69 0 1 1 20.98 17.417.488.488 0 0 1 -.093.006z"/><path d="m25.976 73.543a.5.5 0 0 1 -.132-.018 16.364 16.364 0 0 1 -2.8-1.053.5.5 0 0 1 .19-.959h.009a.5.5 0 0 1 .218.049 15.344 15.344 0 0 0 2.643 1 .5.5 0 0 1 -.13.982z"/><path d="m30.694 66.733a10.25 10.25 0 1 1 10.229-10.249 10.25 10.25 0 0 1 -10.229 10.249zm0-19.5a9.25 9.25 0 1 0 9.229 9.25 9.25 9.25 0 0 0 -9.229-9.249z"/><path d="m65.236 73.8a7.608 7.608 0 1 1 7.592-7.608 7.609 7.609 0 0 1 -7.592 7.608zm0-14.216a6.608 6.608 0 1 0 6.592 6.608 6.609 6.609 0 0 0 -6.592-6.606z"/><path d="m76.5 67.584h-4.227a.5.5 0 0 1 0-1h4.227a.5.5 0 0 1 0 1z"/><path d="m58.209 67.668h-14.034a.5.5 0 0 1 0-1h14.034a.5.5 0 0 1 0 1z"/><path d="m62.983 49.305h-16.9a.5.5 0 0 1 0-1h16.9a2.322 2.322 0 0 0 0-4.643h-21.383a.5.5 0 0 1 0-1h21.383a3.322 3.322 0 0 1 0 6.643z"/><path d="m65.235 59.586a.5.5 0 0 1 -.487-.393l-2.248-10.281a.5.5 0 1 1 .976-.215l2.253 10.282a.5.5 0 0 1 -.489.607z"/><path d="m58.319 43.662a.5.5 0 0 1 -.482-.369l-3.4-12.551a5.61 5.61 0 0 0 -5.4-4.142h-25.985a.5.5 0 0 1 0-1h25.981a6.611 6.611 0 0 1 6.367 4.88l3.4 12.551a.5.5 0 0 1 -.351.614.543.543 0 0 1 -.13.017z"/></svg>