<svg id="Layer_1" height="512" viewBox="0 0 90 90" width="512" xmlns="http://www.w3.org/2000/svg" data-name="Layer 1"><path d="m53.847 69.91a.5.5 0 0 1 -.356-.851 21.057 21.057 0 0 0 1.809-2.077.5.5 0 0 1 .8.6 22.288 22.288 0 0 1 -1.9 2.18.5.5 0 0 1 -.353.148z"/><path d="m37.238 76.843a24.264 24.264 0 0 1 -17.111-7.107 23.885 23.885 0 0 1 -7.127-17.051 23.32 23.32 0 0 1 6.928-16.665 23.919 23.919 0 0 1 30.311-2.713l8.561-8.507-4.845-4.818a.5.5 0 0 1 0-.709l5.068-5.04a.5.5 0 0 1 .7 0l4.848 4.813 5.75-5.714a.5.5 0 0 1 .7 0l5.818 5.779a.5.5 0 0 1 0 .709l-5.746 5.72 4.844 4.817a.5.5 0 0 1 0 .709l-5.054 5.034a.5.5 0 0 1 -.7 0l-4.853-4.819-8.565 8.513a24.068 24.068 0 0 1 4.1 11.6.5.5 0 0 1 -1 .08 23.073 23.073 0 0 0 -4.161-11.453.5.5 0 0 1 .056-.643l9.215-9.158a.5.5 0 0 1 .705 0l4.848 4.821 4.359-4.334-4.845-4.817a.5.5 0 0 1 0-.709l5.746-5.72-5.108-5.074-5.747 5.713a.5.5 0 0 1 -.705 0l-4.848-4.81-4.359 4.334 4.844 4.818a.5.5 0 0 1 0 .709l-9.215 9.158a.5.5 0 0 1 -.64.054 22.93 22.93 0 0 0 -29.378 2.366 22.333 22.333 0 0 0 -6.632 15.956 23.23 23.23 0 0 0 33.752 20.6.5.5 0 0 1 .459.889 23.887 23.887 0 0 1 -10.973 2.669z"/><path d="m58.943 61.985a.5.5 0 0 1 -.467-.676 23.441 23.441 0 0 0 .836-2.695.5.5 0 0 1 .971.239 24.317 24.317 0 0 1 -.872 2.809.5.5 0 0 1 -.468.323z"/><path d="m36.927 68.426a15.484 15.484 0 0 1 -10.953-4.5 15.345 15.345 0 0 1 0-21.788 15.572 15.572 0 0 1 21.906 0 15.343 15.343 0 0 1 0 21.788 15.487 15.487 0 0 1 -10.953 4.5zm0-29.795a14.49 14.49 0 0 0 -10.248 4.213 14.346 14.346 0 0 0 0 20.37 14.571 14.571 0 0 0 20.5 0 14.343 14.343 0 0 0 0-20.37 14.489 14.489 0 0 0 -10.252-4.213z"/></svg>