<svg id="Layer_1" height="512" viewBox="0 0 90 90" width="512" xmlns="http://www.w3.org/2000/svg" data-name="Layer 1"><path d="m67.012 52.478a.473.473 0 0 1 -.176-.033.5.5 0 0 1 -.292-.643c.363-.969.651-1.862.882-2.73a.5.5 0 0 1 .967.256 29.691 29.691 0 0 1 -.914 2.825.5.5 0 0 1 -.467.325z"/><path d="m45 77a.493.493 0 0 1 -.25-.067c-15.567-9-24.495-22.589-24.495-37.279v-16.818a.5.5 0 0 1 .487-.5 37.662 37.662 0 0 0 23.935-9.218.5.5 0 0 1 .676.028c6.218 6.182 13.944 9.191 23.608 9.191a.933.933 0 0 0 .284 0 .5.5 0 0 1 .5.5v10.163a.5.5 0 1 1 -1 0v-9.664c-9.545-.048-17.538-3.129-23.771-9.161a38.581 38.581 0 0 1 -23.719 9.145v16.334c0 14.252 8.661 27.464 23.77 36.283 10.146-4.78 18.266-17.407 18.338-17.531a.5.5 0 0 1 .864.506c-.075.127-8.321 13.146-19.019 18.043a.5.5 0 0 1 -.208.045z"/><path d="m69.122 43.019h-.046a.5.5 0 0 1 -.453-.543c.081-.891.122-1.829.122-2.79a.5.5 0 0 1 1 0c0 .991-.042 1.96-.126 2.879a.5.5 0 0 1 -.497.454z"/><path d="m45 71.412a.5.5 0 0 1 -.271-.079c-12.521-8.05-19.7-19.6-19.7-31.683v-12.395a.5.5 0 0 1 .437-.5 41.878 41.878 0 0 0 19.045-7.473.5.5 0 0 1 .6.017 36.281 36.281 0 0 0 19.414 7.6.5.5 0 0 1 .453.5v12.251c0 12.085-7.182 23.633-19.7 31.683a.5.5 0 0 1 -.278.079zm-18.974-43.72v11.958c0 11.65 6.912 22.814 18.974 30.666 12.062-7.852 18.974-19.016 18.974-30.666v-11.8a37.218 37.218 0 0 1 -19.194-7.534 42.828 42.828 0 0 1 -18.754 7.376z"/><path d="m47.863 53.3h-5.726a.5.5 0 0 1 -.5-.5v-6.336h-6.337a.5.5 0 0 1 -.5-.5v-5.726a.5.5 0 0 1 .5-.5h6.339v-6.338a.5.5 0 0 1 .5-.5h5.726a.5.5 0 0 1 .5.5v6.339h6.335a.5.5 0 0 1 .5.5v5.726a.5.5 0 0 1 -.5.5h-6.337v6.335a.5.5 0 0 1 -.5.5zm-5.226-1h4.726v-6.336a.5.5 0 0 1 .5-.5h6.337v-4.726h-6.337a.5.5 0 0 1 -.5-.5v-6.338h-4.726v6.339a.5.5 0 0 1 -.5.5h-6.337v4.726h6.339a.5.5 0 0 1 .5.5z"/></svg>