<svg id="Layer_1" height="512" viewBox="0 0 90 90" width="512" xmlns="http://www.w3.org/2000/svg" data-name="Layer 1"><path d="m30.052 65.071a.5.5 0 0 1 -.5-.5v-51.071a.5.5 0 0 1 1 0v51.071a.5.5 0 0 1 -.5.5z"/><path d="m22.349 71.034a.5.5 0 0 1 -.5-.5v-49.379a8.188 8.188 0 0 1 8.203-8.155h37.6a.5.5 0 0 1 .5.5v12.819a.5.5 0 1 1 -1 0v-12.319h-37.1a7.187 7.187 0 0 0 -7.2 7.155v49.379a.5.5 0 0 1 -.503.5z"/><path d="m67.651 45.8a.5.5 0 0 1 -.5-.5v-2.781a.5.5 0 1 1 1 0v2.781a.5.5 0 0 1 -.5.5z"/><path d="m67.651 65.03a.5.5 0 0 1 -.5-.5v-12.552a.5.5 0 1 1 1 0v12.552a.5.5 0 0 1 -.5.5z"/><path d="m67.651 36.336a.5.5 0 0 1 -.5-.5v-2.836a.5.5 0 1 1 1 0v2.835a.5.5 0 0 1 -.5.501z"/><path d="m67.655 77h-39.309a6.49 6.49 0 0 1 -6.5-6.465c0-3.927 3.221-6.464 8.207-6.464h37.6a.5.5 0 0 1 .43.756 10.361 10.361 0 0 0 0 11.417.5.5 0 0 1 -.43.756zm-37.6-11.929c-4.446 0-7.207 2.094-7.207 5.464a5.488 5.488 0 0 0 5.498 5.465h38.454a11.221 11.221 0 0 1 0-10.929z"/><path d="m58.583 71.035h-27.166a.5.5 0 0 1 0-1h27.166a.5.5 0 0 1 0 1z"/><path d="m51.509 40.728h-5.07a.5.5 0 0 1 -.5-.5v-5.556h-5.556a.5.5 0 0 1 -.5-.5v-5.072a.5.5 0 0 1 .5-.5h5.556v-5.555a.5.5 0 0 1 .5-.5h5.07a.5.5 0 0 1 .5.5v5.555h5.556a.5.5 0 0 1 .5.5v5.07a.5.5 0 0 1 -.5.5h-5.556v5.556a.5.5 0 0 1 -.5.502zm-4.57-1h4.07v-5.556a.5.5 0 0 1 .5-.5h5.556v-4.072h-5.556a.5.5 0 0 1 -.5-.5v-5.555h-4.07v5.555a.5.5 0 0 1 -.5.5h-5.556v4.07h5.556a.5.5 0 0 1 .5.5z"/></svg>