<svg id="Layer_1" height="512" viewBox="0 0 90 90" width="512" xmlns="http://www.w3.org/2000/svg" data-name="Layer 1"><path d="m58.122 32.836a7.537 7.537 0 1 1 7.509-7.536 7.532 7.532 0 0 1 -7.509 7.536zm0-14.074a6.537 6.537 0 1 0 6.509 6.538 6.53 6.53 0 0 0 -6.509-6.538z"/><path d="m69 62.877a4.137 4.137 0 0 1 -4.125-4.141v-10.267a.5.5 0 0 1 1 0v10.267a3.126 3.126 0 1 0 6.251 0v-14.752a7.565 7.565 0 0 0 -7.54-7.571h-12.927a7.564 7.564 0 0 0 -7.539 7.571v14.752a3.126 3.126 0 1 0 6.251 0v-10.267a.5.5 0 0 1 1 0v10.267a4.126 4.126 0 1 1 -8.251 0v-14.752a8.565 8.565 0 0 1 8.539-8.571h12.925a8.566 8.566 0 0 1 8.54 8.571v14.752a4.138 4.138 0 0 1 -4.124 4.141z"/><path d="m65.376 72.131a.5.5 0 0 1 -.5-.5v-2.11a.5.5 0 1 1 1 0v2.11a.5.5 0 0 1 -.5.5z"/><path d="m65.373 64.942a.5.5 0 0 1 -.5-.5v-5.706a.5.5 0 0 1 1 0v5.706a.5.5 0 0 1 -.5.5z"/><path d="m61.749 81.762a4.137 4.137 0 0 1 -4.127-4.137v-13.86a.5.5 0 0 1 1 0v13.86a3.136 3.136 0 0 0 3.127 3.137 3.214 3.214 0 0 0 3.127-3.137v-.907a.5.5 0 1 1 1 0v.907a4.24 4.24 0 0 1 -4.127 4.137z"/><path d="m54.5 81.762a4.137 4.137 0 0 1 -4.125-4.14v-18.886a.5.5 0 0 1 1 0v18.886a3.126 3.126 0 1 0 6.251 0 .5.5 0 0 1 1 0 4.136 4.136 0 0 1 -4.126 4.14z"/></svg>