<svg id="Layer_1" height="512" viewBox="0 0 90 90" width="512" xmlns="http://www.w3.org/2000/svg" data-name="Layer 1"><path d="m68.062 57.947a.5.5 0 0 1 -.5-.5v-2.778a.5.5 0 0 1 1 0v2.778a.5.5 0 0 1 -.5.5z"/><path d="m68.062 48.488a.5.5 0 0 1 -.5-.5v-2.835a.5.5 0 0 1 1 0v2.835a.5.5 0 0 1 -.5.5z"/><path d="m68.062 77h-46.124a.5.5 0 0 1 -.5-.5v-63a.5.5 0 0 1 .5-.5h46.124a.5.5 0 0 1 .5.5v24.971a.5.5 0 0 1 -1 0v-24.471h-45.124v62h45.124v-11.871a.5.5 0 0 1 1 0v12.371a.5.5 0 0 1 -.5.5z"/><path d="m45 33.767a.5.5 0 0 1 -.5-.5v-12.167a.5.5 0 0 1 1 0v12.167a.5.5 0 0 1 -.5.5z"/><path d="m51.082 27.686h-12.164a.5.5 0 0 1 0-1h12.164a.5.5 0 0 1 0 1z"/><path d="m61.068 42.452h-32.136a.5.5 0 0 1 0-1h32.136a.5.5 0 0 1 0 1z"/><path d="m61.068 50.8h-32.136a.5.5 0 0 1 0-1h32.136a.5.5 0 0 1 0 1z"/><path d="m61.068 59.142h-32.136a.5.5 0 1 1 0-1h32.136a.5.5 0 0 1 0 1z"/><path d="m61.068 67.487h-32.136a.5.5 0 0 1 0-1h32.136a.5.5 0 1 1 0 1z"/></svg>