<svg id="Layer_1" height="512" viewBox="0 0 90 90" width="512" xmlns="http://www.w3.org/2000/svg" data-name="Layer 1"><path d="m49.133 74.862h-2.833a.5.5 0 0 1 0-1h2.835a.5.5 0 1 1 0 1z"/><path d="m30.167 74.862h-11.667a.5.5 0 0 1 -.5-.5v-27.289a.5.5 0 1 1 1 0v26.789h11.17a.5.5 0 0 1 0 1z"/><path d="m39.616 74.862h-2.768a.5.5 0 0 1 0-1h2.768a.5.5 0 0 1 0 1z"/><path d="m71.5 74.862h-15.685a.5.5 0 0 1 0-1h15.185v-26.789a.5.5 0 1 1 1 0v27.289a.5.5 0 0 1 -.5.5z"/><path d="m16.483 48.36q-.075 0-.15 0a3.455 3.455 0 0 1 -2.416-1.123 3.491 3.491 0 0 1 .208-4.923l28.519-26.256a3.5 3.5 0 0 1 4.712 0l28.519 26.254a3.489 3.489 0 0 1 .207 4.922 3.662 3.662 0 0 1 -4.9.224l-.019-.017-26.163-24.085-26.164 24.085a3.457 3.457 0 0 1 -2.353.919zm28.517-32.217a2.467 2.467 0 0 0 -1.678.65l-28.522 26.254a2.49 2.49 0 0 0 -.148 3.511 2.48 2.48 0 0 0 3.5.148l26.5-24.4a.5.5 0 0 1 .678 0l26.502 24.394a2.684 2.684 0 0 0 3.514-.139 2.49 2.49 0 0 0 -.148-3.511l-28.52-26.257a2.467 2.467 0 0 0 -1.678-.65z"/><path d="m24 34.406a.5.5 0 0 1 -.5-.5v-18.264a.5.5 0 0 1 .5-.5h8.91a.5.5 0 0 1 .5.5v10.058a.5.5 0 0 1 -1 0v-9.558h-7.91v17.764a.5.5 0 0 1 -.5.5z"/><path d="m45 65.952a11.482 11.482 0 1 1 11.482-11.482 11.5 11.5 0 0 1 -11.482 11.482zm0-21.963a10.482 10.482 0 1 0 10.482 10.481 10.493 10.493 0 0 0 -10.482-10.481z"/><path d="m45 59.73a.5.5 0 0 1 -.5-.5v-9.52a.5.5 0 0 1 1 0v9.52a.5.5 0 0 1 -.5.5z"/><path d="m49.76 54.97h-9.52a.5.5 0 0 1 0-1h9.52a.5.5 0 0 1 0 1z"/></svg>