<svg id="Layer_1" height="512" viewBox="0 0 90 90" width="512" xmlns="http://www.w3.org/2000/svg" data-name="Layer 1"><path d="m56.426 52.917a.491.491 0 0 1 -.25-.067.5.5 0 0 1 -.183-.683c.455-.787.9-1.6 1.337-2.42a.5.5 0 0 1 .883.471c-.442.826-.894 1.652-1.355 2.449a.5.5 0 0 1 -.432.25z"/><path d="m45 69.679a.5.5 0 0 1 -.385-.181c-.757-.914-18.528-22.553-18.528-37.528a18.913 18.913 0 1 1 37.826 0 20.988 20.988 0 0 1 -.195 2.787.506.506 0 0 1 -.562.43.5.5 0 0 1 -.428-.562 20.189 20.189 0 0 0 .185-2.655 17.913 17.913 0 1 0 -35.826 0c0 13.422 15.271 33.109 17.913 36.413 1.065-1.333 4.19-5.337 7.513-10.472a.5.5 0 0 1 .84.543 132.5 132.5 0 0 1 -7.967 11.046.5.5 0 0 1 -.386.182z"/><path d="m60.606 44.431a.5.5 0 0 1 -.189-.037.5.5 0 0 1 -.273-.652c.348-.853.683-1.738.993-2.629a.5.5 0 0 1 .945.329c-.316.908-.657 1.809-1.013 2.679a.5.5 0 0 1 -.463.31z"/><path d="m45 77c-8.844 0-15.771-3.438-15.771-7.825 0-3.388 4.126-6.284 10.51-7.38a.5.5 0 1 1 .17.986c-5.79.993-9.68 3.563-9.68 6.394 0 3.699 6.764 6.825 14.771 6.825s14.771-3.126 14.771-6.825c0-2.83-3.894-5.4-9.69-6.394a.5.5 0 1 1 .17-.986c6.391 1.1 10.52 3.993 10.52 7.38 0 4.387-6.927 7.825-15.771 7.825z"/><path d="m45 44.621a12.514 12.514 0 1 1 12.514-12.514 12.528 12.528 0 0 1 -12.514 12.514zm0-24.027a11.514 11.514 0 1 0 11.514 11.513 11.527 11.527 0 0 0 -11.514-11.513z"/><path d="m45 37.656a.5.5 0 0 1 -.5-.5v-10.096a.5.5 0 0 1 1 0v10.1a.5.5 0 0 1 -.5.496z"/><path d="m50.048 32.607h-10.1a.5.5 0 0 1 0-1h10.1a.5.5 0 0 1 0 1z"/></svg>